<svg width="116" height="144" viewBox="0 0 116 144" fill="none" xmlns="http://www.w3.org/2000/svg" xmlns:xlink="http://www.w3.org/1999/xlink">
<path d="M57.047,142L12.643,142C5.296,142 0.559,137.73 0,130.418C0.012,127.721 0.351,125.036 1.01,122.422C2.097,115.978 2.749,109.458 4.302,103.107C6.494,94.03 11.443,85.853 18.471,79.701C25.498,73.549 34.259,69.723 43.55,68.749C53.319,67.833 63.244,67.445 73.059,69.277C81.946,71.014 90.118,75.348 96.54,81.729C102.962,88.111 107.347,96.253 109.139,105.126C110.692,112.796 112.245,120.465 113.798,128.166C115.351,135.867 110.008,141.984 102.196,142.031L57.155,142.031L57.047,142ZM25.44,134.02C31.032,134.02 35.676,134.02 40.319,134.02C41.593,134.02 41.981,133.492 42.105,132.374C42.478,128.663 42.898,124.937 43.301,121.226C44.44,110.607 45.59,99.992 46.749,89.383C46.83,89.025 46.801,88.651 46.665,88.31C46.529,87.969 46.293,87.677 45.988,87.473C42.914,85.168 40.721,81.881 39.776,78.157C39.496,77.024 39.046,76.838 37.99,77.164C24.011,81.604 15.19,90.935 11.416,105.002C9.862,110.824 9.397,116.895 8.309,122.841C7.921,125.154 7.517,127.499 7.346,129.797C7.286,130.334 7.338,130.878 7.5,131.394C7.662,131.91 7.93,132.386 8.286,132.792C8.643,133.199 9.081,133.526 9.572,133.753C10.062,133.981 10.595,134.103 11.136,134.113C16.292,133.833 21.34,134.144 25.44,134.02ZM87.566,134.299C92.225,134.299 96.884,134.299 101.544,134.299C104.868,134.299 106.902,132.172 106.343,129.408C104.79,121.645 103.361,113.882 101.559,106.244C98.236,92.022 89.445,82.613 75.7,77.769C74.908,77.49 74.147,77.164 73.914,78.437C73.031,82.148 70.891,85.439 67.856,87.752C67.535,87.928 67.278,88.202 67.124,88.535C66.97,88.868 66.927,89.241 67.002,89.6C67.887,97.363 68.711,105.266 69.565,113.106C70.264,119.643 70.994,126.195 71.693,132.731C71.817,133.864 72.267,134.284 73.494,134.284C78.185,134.268 82.844,134.299 87.488,134.299L87.566,134.299ZM56.938,134.299C58.988,134.299 61.038,134.299 63.073,134.299C64.175,134.299 64.486,133.88 64.377,132.871C63.927,128.849 63.492,124.844 63.073,120.823C62.41,114.674 61.753,108.531 61.1,102.393C60.774,99.211 60.479,96.043 60.106,92.876C60.106,92.317 60.106,91.479 59.345,91.416C57.732,91.075 56.062,91.118 54.468,91.541C53.412,91.975 53.863,93.606 53.707,94.646C53.614,95.298 53.536,95.935 53.474,96.587C52.807,102.797 52.17,109.007 51.502,115.218C50.881,121.118 50.244,127.012 49.592,132.902C49.467,133.973 49.902,134.315 50.943,134.284C52.869,134.268 54.857,134.299 56.86,134.299L56.938,134.299ZM56.332,76.046C53.412,76.046 51.02,76.046 48.567,76.046C47.2,76.046 47.013,76.481 47.495,77.598C48.192,79.427 49.412,81.01 51.002,82.15C52.593,83.291 54.485,83.938 56.441,84.011C58.468,84.134 60.483,83.631 62.214,82.57C63.945,81.509 65.308,79.941 66.117,78.08C66.971,76.186 66.583,75.518 64.564,75.813C61.597,76.248 58.662,75.875 56.255,76.046L56.332,76.046Z" fill="#1A44B2"/>
<path d="M56.938,0C65.407,-0.025 73.541,3.308 79.556,9.269C85.571,15.229 88.976,23.331 89.026,31.797C88.968,40.287 85.557,48.411 79.535,54.399C73.514,60.386 65.369,63.753 56.876,63.765C48.405,63.786 40.271,60.449 34.257,54.486C28.242,48.523 24.837,40.42 24.788,31.952C24.845,23.463 28.257,15.341 34.279,9.356C40.301,3.371 48.446,0.008 56.938,0ZM81.415,31.952C81.446,28.73 80.834,25.535 79.615,22.552C78.396,19.569 76.595,16.859 74.315,14.581C72.036,12.303 69.325,10.501 66.342,9.283C63.358,8.064 60.161,7.452 56.938,7.484C53.717,7.432 50.517,8.024 47.528,9.225C44.539,10.427 41.82,12.213 39.531,14.48C37.242,16.746 35.43,19.447 34.199,22.423C32.969,25.4 32.346,28.592 32.367,31.813C32.353,35.032 32.977,38.223 34.204,41.201C35.431,44.178 37.236,46.882 39.515,49.158C41.795,51.433 44.502,53.234 47.482,54.457C50.462,55.68 53.655,56.3 56.876,56.281C60.097,56.34 63.298,55.752 66.288,54.552C69.279,53.353 71.998,51.566 74.286,49.298C76.574,47.03 78.383,44.326 79.608,41.347C80.832,38.368 81.447,35.173 81.415,31.952Z" fill="#1A44B2"/>
</svg>
