<svg width="118" height="120" viewBox="0 0 118 120" fill="none" xmlns="http://www.w3.org/2000/svg" xmlns:xlink="http://www.w3.org/1999/xlink">
<path d="M109.556,21L75.778,21L75.778,8.333C75.774,6.096 74.883,3.946 73.299,2.363C71.72,0.784 69.571,-0.107 67.333,-0.111L8.222,-0.111C5.984,-0.107 3.835,0.78 2.252,2.363C0.669,3.946 -0.218,6.096 -0.222,8.333L-0.222,109.667C-0.218,111.905 0.673,114.054 2.252,115.633C3.835,117.216 5.984,118.107 8.222,118.111L109.556,118.111C111.793,118.107 113.938,117.216 115.522,115.633C117.105,114.049 117.996,111.905 118,109.667L118,29.445C117.996,27.207 117.105,25.058 115.522,23.474C113.942,21.895 111.793,21.004 109.556,21ZM46.222,109.667L29.333,109.667L29.333,88.556L46.222,88.556L46.222,109.667ZM67.333,109.667L54.667,109.667L54.667,88.556C54.662,86.318 53.772,84.169 52.188,82.59C50.609,81.006 48.46,80.115 46.222,80.111L29.333,80.111C27.096,80.115 24.946,81.006 23.363,82.59C21.784,84.169 20.893,86.318 20.889,88.556L20.889,109.667L8.222,109.667L8.218,8.333L67.333,8.333L67.333,109.667ZM109.556,109.667L75.778,109.667L75.778,29.445L109.556,29.445L109.556,109.667ZM96.889,59C96.889,59.836 96.64,60.651 96.175,61.348C95.715,62.04 95.052,62.581 94.284,62.901C93.511,63.222 92.662,63.303 91.843,63.142C91.024,62.977 90.273,62.576 89.682,61.985C89.09,61.394 88.689,60.643 88.525,59.823C88.364,59.004 88.444,58.156 88.765,57.383C89.086,56.615 89.627,55.952 90.319,55.491C91.016,55.027 91.831,54.778 92.667,54.778C93.786,54.778 94.862,55.221 95.652,56.015C96.446,56.805 96.889,57.881 96.889,59ZM88.444,42.111C88.444,41.275 88.694,40.46 89.158,39.764C89.618,39.071 90.281,38.531 91.05,38.21C91.822,37.889 92.671,37.809 93.49,37.969C94.309,38.134 95.061,38.535 95.652,39.126C96.243,39.717 96.644,40.469 96.809,41.288C96.969,42.107 96.889,42.956 96.568,43.728C96.247,44.497 95.707,45.16 95.014,45.62C94.318,46.084 93.503,46.333 92.667,46.333C91.548,46.333 90.471,45.89 89.682,45.096C88.888,44.307 88.444,43.23 88.444,42.111ZM54.667,59C54.667,59.836 54.418,60.651 53.953,61.348C53.493,62.04 52.83,62.581 52.062,62.901C51.289,63.222 50.44,63.303 49.621,63.142C48.802,62.977 48.05,62.576 47.459,61.985C46.868,61.394 46.467,60.643 46.302,59.823C46.142,59.004 46.222,58.156 46.543,57.383C46.864,56.615 47.404,55.952 48.097,55.491C48.794,55.027 49.608,54.778 50.444,54.778C51.563,54.778 52.64,55.221 53.43,56.015C54.223,56.805 54.667,57.881 54.667,59ZM54.667,42.111C54.667,42.947 54.418,43.762 53.953,44.459C53.493,45.151 52.83,45.692 52.062,46.013C51.289,46.333 50.44,46.414 49.621,46.253C48.802,46.089 48.05,45.687 47.459,45.096C46.868,44.505 46.467,43.754 46.302,42.935C46.142,42.115 46.222,41.267 46.543,40.494C46.864,39.726 47.404,39.063 48.097,38.603C48.794,38.138 49.608,37.889 50.444,37.889C51.563,37.889 52.64,38.332 53.43,39.126C54.223,39.916 54.667,40.992 54.667,42.111ZM54.667,25.222C54.667,26.058 54.418,26.873 53.953,27.57C53.493,28.262 52.83,28.803 52.062,29.124C51.289,29.445 50.44,29.525 49.621,29.364C48.802,29.2 48.05,28.799 47.459,28.207C46.868,27.616 46.467,26.865 46.302,26.046C46.142,25.227 46.222,24.378 46.543,23.605C46.864,22.837 47.404,22.174 48.097,21.714C48.794,21.249 49.608,21 50.444,21C51.563,21 52.64,21.443 53.43,22.237C54.223,23.027 54.667,24.103 54.667,25.222ZM29.333,59C29.333,59.836 29.084,60.651 28.62,61.348C28.16,62.04 27.497,62.581 26.728,62.901C25.956,63.222 25.107,63.303 24.288,63.142C23.469,62.977 22.717,62.576 22.126,61.985C21.535,61.394 21.134,60.643 20.969,59.823C20.809,59.004 20.889,58.156 21.21,57.383C21.531,56.615 22.071,55.952 22.764,55.491C23.46,55.027 24.275,54.778 25.111,54.778C26.23,54.778 27.307,55.221 28.096,56.015C28.89,56.805 29.333,57.881 29.333,59ZM29.333,42.111C29.333,42.947 29.084,43.762 28.62,44.459C28.16,45.151 27.497,45.692 26.728,46.013C25.956,46.333 25.107,46.414 24.288,46.253C23.469,46.089 22.717,45.687 22.126,45.096C21.535,44.505 21.134,43.754 20.969,42.935C20.809,42.115 20.889,41.267 21.21,40.494C21.531,39.726 22.071,39.063 22.764,38.603C23.46,38.138 24.275,37.889 25.111,37.889C26.23,37.889 27.307,38.332 28.096,39.126C28.89,39.916 29.333,40.992 29.333,42.111ZM29.333,25.222C29.333,26.058 29.084,26.873 28.62,27.57C28.16,28.262 27.497,28.803 26.728,29.124C25.956,29.445 25.107,29.525 24.288,29.364C23.469,29.2 22.717,28.799 22.126,28.207C21.535,27.616 21.134,26.865 20.969,26.046C20.809,25.227 20.889,24.378 21.21,23.605C21.531,22.837 22.071,22.174 22.764,21.714C23.46,21.249 24.275,21 25.111,21C26.23,21 27.307,21.443 28.096,22.237C28.89,23.027 29.333,24.103 29.333,25.222Z" fill="#1A44B2"/>
</svg>
