<svg width="73" height="74" viewBox="0 0 73 74" fill="none" xmlns="http://www.w3.org/2000/svg">
<path d="M36.3768 73.5148C56.4671 73.5148 72.7537 57.058 72.7537 36.7574C72.7537 16.4569 56.4671 0 36.3768 0C16.2864 0 0 16.4569 0 36.7574C0 57.058 16.2864 73.5148 36.3768 73.5148Z" fill="#1A44B2"/>
<path d="M55.799 32.7263H16.9551L21.8368 18.0339H50.9697L55.799 32.7263Z" fill="white"/>
<path d="M52.7545 31.7715H19.9995V61.6866H52.7545V31.7715Z" fill="white"/>
<path d="M48.1352 48.1614H24.6714V60.8912H48.1352V48.1614Z" fill="#1A44B2"/>
<path d="M30.9704 35.8027H23.6216V44.0771H30.9704V35.8027Z" fill="#1A44B2"/>
<path d="M40.0515 35.8027H32.7026V44.0771H40.0515V35.8027Z" fill="#1A44B2"/>
<path d="M49.1848 35.8027H41.8359V44.0771H49.1848V35.8027Z" fill="#1A44B2"/>
</svg>
