<svg width="75" height="73" viewBox="0 0 75 73" fill="none" xmlns="http://www.w3.org/2000/svg">
<path d="M71.2558 65.2749L6.72643 65.2749V58.9783C6.72643 57.6057 7.27766 56.2894 8.25887 55.3188C9.24008 54.3482 10.5709 53.803 11.9585 53.803L66.076 53.803C67.4636 53.803 68.7944 54.3482 69.7757 55.3188C70.7569 56.2894 71.3081 57.6057 71.3081 58.9783V65.2749H71.2558Z" stroke="#1A44B2" stroke-width="4" stroke-miterlimit="10"/>
<path d="M6.74414 6.7251H71.2735V13.0217C71.2735 14.3943 70.7223 15.7106 69.7411 16.6812C68.7598 17.6517 67.429 18.197 66.0414 18.197H11.9763C10.5886 18.197 9.2578 17.6517 8.27659 16.6812C7.29538 15.7106 6.74414 14.3943 6.74414 13.0217V6.7251Z" stroke="#1A44B2" stroke-width="4" stroke-miterlimit="10"/>
<path d="M62.3091 18.1626H17.1211V53.8376H62.3091V18.1626Z" stroke="#1A44B2" stroke-width="4" stroke-miterlimit="10"/>
<path d="M39.5 23C43.6109 23 47.5533 24.6381 50.4602 27.5538C53.367 30.4696 55 34.4242 55 38.5477V54H24V38.5477C24 34.4242 25.633 30.4696 28.5398 27.5538C31.4467 24.6381 35.3891 23 39.5 23Z" stroke="#1A44B2" stroke-width="4" stroke-miterlimit="10"/>
<path d="M39 23.0015V53.0785" stroke="#1A44B2" stroke-width="3" stroke-miterlimit="10"/>
</svg>
