<svg width="82" height="62" viewBox="0 0 82 62" fill="none" xmlns="http://www.w3.org/2000/svg">
<path d="M74.9898 26.3899L76.2898 26.2899C77.1102 26.2872 77.8962 25.9595 78.4754 25.3784C79.0546 24.7973 79.3798 24.0104 79.3798 23.1899V21.4799C79.3798 20.6604 79.0542 19.8744 78.4747 19.295C77.8953 18.7155 77.1093 18.3899 76.2898 18.3899H71.5298L74.9898 26.3899Z" stroke="#1A44B2" stroke-width="3.4" stroke-miterlimit="10"/>
<path d="M20.24 60.0199H14.05C13.2278 60.0199 12.4393 59.6933 11.8579 59.112C11.2766 58.5306 10.95 57.7421 10.95 56.9199V52.9199H23.33V56.9199C23.3313 57.3265 23.2523 57.7294 23.0976 58.1055C22.9429 58.4816 22.7155 58.8234 22.4285 59.1114C22.1414 59.3994 21.8003 59.6278 21.4248 59.7838C21.0492 59.9397 20.6466 60.0199 20.24 60.0199Z" stroke="#1A44B2" stroke-width="3.4" stroke-linecap="round" stroke-linejoin="round"/>
<path d="M6.43001 26.2899H5.09C4.26956 26.2872 3.48364 25.9595 2.90443 25.3784C2.32523 24.7973 2 24.0104 2 23.1899V21.4799C2 20.6604 2.32556 19.8744 2.90504 19.295C3.48453 18.7155 4.27048 18.3899 5.09 18.3899H9.99001L6.43001 26.2899Z" stroke="#1A44B2" stroke-width="3.4" stroke-miterlimit="10"/>
<path d="M61.1398 60.02H67.3298C68.152 60.02 68.9405 59.6934 69.5219 59.112C70.1032 58.5307 70.4298 57.7422 70.4298 56.92V52.48H58.0498V56.92C58.0485 57.3266 58.1275 57.7295 58.2822 58.1056C58.4368 58.4816 58.6642 58.8234 58.9513 59.1114C59.2384 59.3994 59.5795 59.6279 59.955 59.7838C60.3306 59.9397 60.7332 60.02 61.1398 60.02Z" stroke="#1A44B2" stroke-width="3.4" stroke-linecap="round" stroke-linejoin="round"/>
<path d="M76.62 36.1098C76.5164 31.3513 75.4375 26.6647 73.45 22.3398H7.93001C5.94252 26.6647 4.86361 31.3513 4.76001 36.1098V41.3698H76.62V36.1098Z" stroke="#1A44B2" stroke-width="3.4" stroke-miterlimit="10"/>
<path d="M62.2498 5.19998C61.3803 4.19635 60.3054 3.39126 59.0977 2.83917C57.89 2.28708 56.5778 2.0009 55.2498 2H26.0499C24.7219 2.0009 23.4097 2.28708 22.202 2.83917C20.9943 3.39126 19.9194 4.19635 19.0499 5.19998C14.4836 10.3235 10.7086 16.1007 7.84985 22.34H73.3699C70.5357 16.1057 66.7878 10.3288 62.2498 5.19998Z" stroke="#1A44B2" stroke-width="3.4" stroke-miterlimit="10"/>
<path d="M54.2199 48.47H27.1599C25.9605 48.4716 24.787 48.8187 23.7799 49.47L19.1299 52.47H62.2499L57.5999 49.47C56.5927 48.8187 55.4192 48.4716 54.2199 48.47Z" stroke="#1A44B2" stroke-width="3.4" stroke-miterlimit="10"/>
<path d="M4.76001 41.3699V46.3099C4.76001 47.9516 5.41216 49.526 6.57301 50.6869C7.73386 51.8477 9.30831 52.4999 10.95 52.4999H19.13L23.78 49.4999C24.7872 48.8486 25.9606 48.5015 27.16 48.4999H54.22C55.4194 48.5015 56.5929 48.8486 57.6 49.4999L62.25 52.4999H70.43C72.0717 52.4999 73.6461 51.8477 74.807 50.6869C75.9678 49.526 76.62 47.9516 76.62 46.3099V41.3699H4.76001Z" stroke="#1A44B2" stroke-width="3.4" stroke-miterlimit="10"/>
<path d="M24.52 28.7598H12.86C11.8051 28.7598 10.95 29.6149 10.95 30.6698V33.0398C10.95 34.0946 11.8051 34.9498 12.86 34.9498H24.52C25.5748 34.9498 26.43 34.0946 26.43 33.0398V30.6698C26.43 29.6149 25.5748 28.7598 24.52 28.7598Z" stroke="#1A44B2" stroke-width="3.4" stroke-miterlimit="10"/>
<path d="M56.86 28.7598H68.52C68.7708 28.7598 69.0191 28.8092 69.2509 28.9052C69.4826 29.0011 69.6932 29.1418 69.8705 29.3192C70.0479 29.4965 70.1886 29.7071 70.2846 29.9388C70.3805 30.1706 70.43 30.4189 70.43 30.6698V32.9498C70.43 33.4802 70.2192 33.9889 69.8442 34.364C69.4691 34.7391 68.9604 34.9498 68.43 34.9498H56.86C56.3534 34.9498 55.8676 34.7485 55.5094 34.3904C55.1512 34.0322 54.95 33.5463 54.95 33.0398V30.6698C54.95 30.1632 55.1512 29.6774 55.5094 29.3192C55.8676 28.961 56.3534 28.7598 56.86 28.7598Z" stroke="#1A44B2" stroke-width="3.4" stroke-miterlimit="10"/>
<path d="M26.4299 31.9299H54.9499" stroke="#1A44B2" stroke-width="3.4" stroke-miterlimit="10"/>
</svg>
