<svg width="73" height="74" viewBox="0 0 73 74" fill="none" xmlns="http://www.w3.org/2000/svg">
<path d="M36.3768 73.5148C56.4671 73.5148 72.7536 57.058 72.7536 36.7574C72.7536 16.4569 56.4671 0 36.3768 0C16.2864 0 0 16.4569 0 36.7574C0 57.058 16.2864 73.5148 36.3768 73.5148Z" fill="#1A44B2"/>
<path d="M24.3037 38.4547C20.2483 38.3899 16.3238 36.9936 13.1229 34.4766C12.4405 34.0523 12.493 33.4689 13.1229 32.8855C13.4583 32.5922 13.8521 32.3752 14.2777 32.249L44.8805 20.3148L46.0878 19.9435C46.2681 19.8758 46.4616 19.8527 46.6525 19.876C46.8434 19.8992 47.0261 19.9682 47.1852 20.0772C47.3444 20.1861 47.4755 20.3319 47.5677 20.5024C47.6599 20.6729 47.7104 20.8631 47.7151 21.0573C48.0825 23.7624 48.3974 26.3615 48.8174 29.1196C48.9007 29.4708 48.8496 29.8407 48.6744 30.1554C48.4992 30.4701 48.2128 30.7065 47.8725 30.817C41.731 33.0977 35.7469 35.7498 29.5004 37.7653C27.8035 38.2136 26.0576 38.4451 24.3037 38.4547Z" fill="white"/>
<path d="M60.8379 45.5092V50.8133C60.8379 51.6089 60.5754 51.8741 59.7881 51.9271C57.6884 51.9271 56.0611 51.3967 55.4312 49.222C55.4312 48.4794 54.8013 48.9037 54.4339 49.222L45.4577 53.041C41.9933 54.5261 41.8359 54.5262 39.5262 51.5029L35.2743 45.9335C35.1304 45.6759 34.9136 45.4677 34.6517 45.3354C34.3899 45.2031 34.0949 45.1528 33.8046 45.191C33.0535 45.2472 32.301 45.1057 31.6202 44.7803C30.9394 44.455 30.3537 43.9568 29.9202 43.3345C29.5528 42.7511 29.1328 42.9632 28.7128 43.3345L21.1541 46.2517C19.9468 46.7291 19.6318 46.57 19.1594 45.3501L17.0597 40.046C17.0597 40.046 16.7447 39.5155 17.0597 39.3034C17.3746 39.0912 17.5321 39.3034 17.7421 39.3034C22.535 41.0037 27.7755 40.8906 32.4923 38.9851L47.085 33.3097C47.5574 33.3097 48.1348 32.408 48.5547 33.3097C48.9747 34.2114 48.9223 35.6435 47.9774 36.0148C46.0352 36.8104 44.093 37.606 42.0983 38.2956C41.1009 38.6668 40.5235 39.0382 40.681 40.3111C40.6988 40.7822 40.6194 41.2519 40.4476 41.6903C40.2759 42.1286 40.0158 42.526 39.6837 42.8572C39.2638 43.3876 39.3162 43.7059 39.6837 44.2363C40.7335 45.5623 41.7833 46.9944 42.8331 48.3735C42.9663 48.6187 43.1899 48.8008 43.4553 48.8803C43.7208 48.9598 44.0066 48.9301 44.2504 48.7977L54.7488 44.3954C54.97 44.3254 55.162 44.1833 55.295 43.9914C55.4279 43.7995 55.4943 43.5685 55.4837 43.3345C55.4832 42.875 55.575 42.4202 55.7536 41.9976C55.9322 41.5751 56.1939 41.1935 56.5227 40.8761C56.8515 40.5587 57.2407 40.3121 57.6666 40.1512C58.0926 39.9903 58.5464 39.9183 59.0006 39.9398C60.9428 39.9398 60.9428 39.9398 60.9428 41.9554L60.8379 45.5092Z" fill="white"/>
<path d="M15.065 45.4032C14.8026 45.4447 14.5339 45.3934 14.3044 45.2581C14.075 45.1228 13.8986 44.9118 13.8052 44.6605C13.1753 43.1223 12.5979 41.531 12.0205 39.9398C11.9448 39.7813 11.9039 39.6081 11.9006 39.4322C11.8973 39.2562 11.9318 39.0816 12.0016 38.9203C12.0714 38.7591 12.175 38.615 12.3051 38.498C12.4352 38.381 12.5888 38.2939 12.7554 38.2426C15.485 37.2348 14.8026 37.0225 15.7999 39.4624L17.3747 43.6527C17.3747 44.2362 17.3746 44.6074 16.9022 44.7665C16.3128 45.0412 15.6973 45.2546 15.065 45.4032Z" fill="white"/>
</svg>
