<svg xmlns="http://www.w3.org/2000/svg" viewBox="0 0 200 200"><defs><style>.cls-1{fill:#1c4897;}</style></defs><g id="text"><path class="cls-1" d="M195,78.91c-9.15-43.19-45.86-74.42-90.81-76.52A94.12,94.12,0,0,0,50.75,15.46c-27.36,16.25-43,40.47-47,71.94-2.66,21.12,1.66,41,12.4,59.48a4.35,4.35,0,0,1,.54,3.11c-2.06,11.57-4.06,23.14-6.15,34.71-.62,3.42-.42,6.65,2.38,9,3,2.51,6.5,2.65,10.1,1.15,9.1-3.81,18.22-7.57,27.32-11.39a3.49,3.49,0,0,1,3.43.22C74,195,95.42,198.31,118.08,194.13,163.9,185.69,197.44,145,197,97.33A85.3,85.3,0,0,0,195,78.91ZM114.46,180.1c-21.14,3.85-40.81-.42-59-11.87a9,9,0,0,0-8.49-.58c-6,2.39-11.92,4.9-17.88,7.36-.69.29-1.4.56-2.4,1,1.16-7.18,2.27-14.07,3.39-21,.39-2.38.79-4.76,1.22-7.13a8,8,0,0,0-1.47-5.74c-9-14.63-13.33-30.55-12.11-47.63,2.41-33.62,18.79-58.15,49.79-71.66C101.72,8,142.18,18.6,164.82,48.14,202.43,97.2,176.37,168.85,114.46,180.1Z"/><path class="cls-1" d="M99.77,53.29c15.8,0,29,12.15,30.1,27.58.53,7.76-2.62,14.39-7.34,20.37-2.58,3.27-6,5.69-8.78,8.73a32.47,32.47,0,0,0-5,6.44,9.84,9.84,0,0,0-1.24,4.21c-.28,5.08-3.52,7.94-8.38,7.47-4.54-.43-7.16-4.15-6.44-9,1.28-8.64,5.52-15.59,12-21.25A91.86,91.86,0,0,0,111.43,91c8.28-8.85.47-20.37-7.73-22.25A15,15,0,0,0,85.09,82.89c-.23,5.92-4.7,9.17-10.15,7.39-3-1-4.74-3.46-4.82-7C69.8,69.17,81,55.87,95,53.73A24.75,24.75,0,0,1,99.77,53.29Z"/><path class="cls-1" d="M92.57,143a7.48,7.48,0,1,1,7.25,7.59A7.49,7.49,0,0,1,92.57,143Z"/></g></svg>