<svg class="i-home-svg" width="112" height="108" viewBox="0 0 112 108" fill="none" xmlns="http://www.w3.org/2000/svg" xmlns:xlink="http://www.w3.org/1999/xlink">
<path d="M63.105,2.392L63.75,2.997L111.971,50.37L106.8,55.63L100.16,49.108L100.163,99.111C100.163,102.999 97.153,106.186 93.335,106.467L92.785,106.489L19.008,106.489C15.12,106.489 11.933,103.479 11.648,99.661L11.63,99.111L11.626,49.112L4.994,55.63L-0.178,50.37L47.991,3.045C52.097,-1.146 58.719,-1.378 63.105,2.392ZM53.565,7.94L53.211,8.261L19.004,41.863L19.008,99.111L37.448,99.107L37.452,62.222C37.452,58.334 40.462,55.147 44.28,54.863L44.83,54.845L66.963,54.845C70.851,54.845 74.039,57.855 74.323,61.673L74.341,62.222L74.337,99.107L92.785,99.111L92.782,41.86L58.479,8.158C57.136,6.841 55.041,6.76 53.565,7.94ZM66.963,62.222L44.83,62.222L44.826,99.107L66.96,99.107L66.963,62.222Z" fill="#1A44B2"/>
</svg>
