<svg width="71" height="75" viewBox="0 0 71 75" fill="none" xmlns="http://www.w3.org/2000/svg">
<path d="M35.4845 74.146C55.082 74.146 70.9689 58.0929 70.9689 38.2903C70.9689 18.4877 55.082 2.43457 35.4845 2.43457C15.8869 2.43457 0 18.4877 0 38.2903C0 58.0929 15.8869 74.146 35.4845 74.146Z" fill="#1A44B2"/>
<path d="M39.6957 2.24037L61 63.4217C58.2727 65.9621 55.2293 68.1374 51.9456 69.8929C47.5885 72.2474 42.7712 73.6164 37.8315 73.9039C33.0611 74.2478 28.2692 73.6667 23.7174 72.1925C19.2334 70.8656 15.1866 68.3537 12 64.9193C12 64.5984 29.6826 2.93556 30.0554 2.34727C30.4283 1.75899 32.5054 2.3473 34.3696 1.5451C35.2193 1.0912 36.1887 0.914236 37.1432 1.03883C38.0976 1.16342 38.9897 1.58341 39.6957 2.24037Z" fill="white" stroke="white" stroke-width="0.21" stroke-miterlimit="10"/>
<path d="M34.5396 57.8623L34.9595 67.3567C34.9725 68.1875 35.3014 68.9813 35.878 69.5738C36.4545 70.1663 37.2346 70.5119 38.0565 70.539C38.8827 70.5251 39.6703 70.1837 40.2497 69.5884C40.829 68.9931 41.1536 68.1916 41.1535 67.3567L40.7336 57.8623C40.7336 57.0323 40.4073 56.2363 39.8265 55.6494C39.2457 55.0625 38.4579 54.7329 37.6366 54.7329C36.8194 54.7466 36.0395 55.0807 35.4616 55.6646C34.8837 56.2486 34.5531 57.0366 34.5396 57.8623Z" fill="#1A44B2"/>
<path d="M33.6997 38.3433L34.0671 46.1403C34.0806 46.8113 34.3503 47.451 34.82 47.9255C35.2896 48.4001 35.9227 48.6726 36.5868 48.6862C37.2559 48.6732 37.8949 48.4024 38.373 47.9291C38.8511 47.4559 39.1322 46.816 39.1589 46.1403L38.7914 38.3433C38.778 37.6582 38.5027 37.005 38.0232 36.5205C37.5437 36.036 36.8973 35.7577 36.2193 35.7441C35.5463 35.758 34.9055 36.0379 34.4344 36.5239C33.9633 37.0098 33.6996 37.6631 33.6997 38.3433Z" fill="#1A44B2"/>
<path d="M33 17.2091L33.3365 23.8362C33.3488 24.4065 33.5959 24.9502 34.026 25.3535C34.4562 25.7569 35.036 25.9885 35.6442 26C36.2571 25.989 36.8423 25.7588 37.2802 25.3565C37.7181 24.9543 37.9756 24.4105 38 23.8362L37.6635 17.2091C37.6512 16.6269 37.399 16.0716 36.9599 15.6598C36.5207 15.248 35.9286 15.0115 35.3077 15C34.6913 15.0118 34.1044 15.2497 33.6729 15.6627C33.2415 16.0757 32.9999 16.631 33 17.2091Z" fill="#1A44B2"/>
</svg>
