<svg width="174" height="110" viewBox="0 0 174 110" fill="none" xmlns="http://www.w3.org/2000/svg" xmlns:xlink="http://www.w3.org/1999/xlink">
<path d="M0,47.894C3.165,39.939 6.329,31.978 9.493,24.013C12.093,17.416 14.663,10.819 17.277,4.222C18.811,0.337 21.542,-0.836 25.412,0.674C29.531,2.287 33.62,3.944 37.724,5.541C38.907,5.872 39.949,6.583 40.69,7.566C41.432,8.548 41.831,9.748 41.828,10.98C41.79,11.322 41.873,11.667 42.062,11.954C42.252,12.241 42.536,12.451 42.865,12.549C45.771,13.941 48.935,14.71 52.154,14.807C59.368,14.807 66.641,14.807 73.652,17.006C74.776,17.357 75.346,16.654 75.959,15.994C78.184,13.295 81.288,11.472 84.722,10.848C85.782,10.653 86.865,10.619 87.935,10.746C91.343,11.244 94.75,11.787 98.158,12.373C98.527,12.404 98.886,12.512 99.211,12.689C99.537,12.867 99.822,13.109 100.05,13.403C100.278,13.696 100.443,14.033 100.534,14.393C100.626,14.753 100.642,15.129 100.583,15.496C100.542,15.865 100.422,16.222 100.233,16.542C100.043,16.861 99.787,17.137 99.483,17.349C99.179,17.561 98.833,17.706 98.468,17.773C98.104,17.84 97.729,17.829 97.37,17.739C94.565,17.357 91.776,16.922 89.001,16.434C87.504,16.094 85.945,16.155 84.479,16.61C83.013,17.066 81.691,17.9 80.647,19.029C73.741,26.15 66.121,32.537 57.908,38.087C56.082,39.318 56.053,40.124 57.791,41.444C59.066,42.396 60.556,43.017 62.128,43.252C63.7,43.488 65.305,43.33 66.802,42.792C70.783,41.45 74.454,39.316 77.595,36.518C78.208,36.02 78.792,35.477 79.406,35.052C80.522,34.007 82.001,33.442 83.526,33.478C85.052,33.513 86.503,34.147 87.57,35.243C89.03,36.533 90.418,37.984 92.024,39.171C98.124,43.759 105.785,45.736 113.332,44.669C114.102,44.547 114.888,44.586 115.642,44.782C116.396,44.979 117.101,45.33 117.714,45.812C123.892,50.43 130.113,54.975 136.262,59.607C136.657,60.003 137.186,60.235 137.743,60.256C138.301,60.278 138.846,60.088 139.27,59.725C141.841,57.965 144.47,56.28 147.128,54.667C147.345,54.575 147.541,54.437 147.7,54.263C147.86,54.088 147.98,53.881 148.052,53.655C148.124,53.429 148.147,53.191 148.118,52.955C148.09,52.72 148.011,52.494 147.887,52.292C143.447,41.111 139.042,29.921 134.67,18.721C134.203,17.519 133.604,17.255 132.508,17.797C131.413,18.34 130.683,18.413 129.807,18.823C124.406,21.306 118.313,21.825 112.573,20.289C111.536,20.055 110.455,19.967 109.404,19.747C109.052,19.698 108.714,19.581 108.408,19.4C108.102,19.219 107.834,18.98 107.621,18.695C107.408,18.41 107.253,18.085 107.165,17.74C107.078,17.395 107.059,17.036 107.111,16.683C107.153,16.328 107.267,15.984 107.445,15.674C107.624,15.364 107.863,15.093 108.148,14.878C108.433,14.663 108.758,14.508 109.105,14.423C109.451,14.338 109.811,14.323 110.163,14.381C112.062,14.587 113.975,14.865 115.859,15.232C119.653,16.037 123.605,15.6 127.134,13.986C127.704,13.739 128.29,13.528 128.886,13.355C130.741,12.813 132.187,12.168 132.246,9.69C132.339,8.8 132.701,7.959 133.283,7.281C133.865,6.602 134.639,6.118 135.502,5.893C140.015,4.075 144.528,2.243 149.07,0.528C149.745,0.216 150.478,0.05 151.221,0.042C151.963,0.034 152.7,0.184 153.381,0.482C154.062,0.779 154.673,1.218 155.173,1.769C155.674,2.32 156.053,2.971 156.285,3.68C158.475,9.104 160.618,14.543 162.711,19.996C163.456,21.902 162.915,23.397 161.411,24.028C159.907,24.658 158.417,23.91 157.614,21.917C155.671,17.02 153.714,12.124 151.772,7.257C151.29,6.025 150.735,5.717 149.494,6.245C145.989,7.701 142.464,9.094 138.92,10.423C137.751,10.863 137.459,11.405 137.985,12.593C143.418,26.276 148.812,40.002 154.167,53.773C154.591,54.872 155.087,55.107 156.183,54.652C159.644,53.186 163.105,51.838 166.61,50.533C168.071,50.02 168.421,49.433 167.779,47.923C165.997,43.701 164.376,39.391 162.711,35.111C162.413,34.435 162.197,33.727 162.068,33C161.967,32.402 162.087,31.789 162.404,31.273C162.721,30.758 163.214,30.376 163.792,30.2C164.063,30.062 164.358,29.979 164.661,29.957C164.964,29.935 165.268,29.973 165.557,30.07C165.845,30.167 166.111,30.32 166.339,30.521C166.568,30.722 166.754,30.966 166.888,31.24C169.534,37.014 171.831,42.943 173.767,48.994C174.076,50.148 173.937,51.377 173.379,52.433C172.82,53.488 171.884,54.292 170.758,54.682C165.968,56.69 161.104,58.552 156.256,60.443C155.507,60.729 154.698,60.814 153.906,60.691C153.115,60.567 152.37,60.24 151.743,59.739C151.411,59.443 150.982,59.279 150.538,59.279C150.094,59.279 149.665,59.443 149.333,59.739C147.069,61.205 144.791,62.671 142.469,64.137C142.249,64.224 142.049,64.354 141.881,64.52C141.712,64.686 141.579,64.885 141.489,65.104C141.399,65.323 141.354,65.558 141.357,65.795C141.359,66.032 141.41,66.266 141.505,66.483C141.963,68.101 142.017,69.807 141.663,71.451C141.31,73.096 140.559,74.627 139.477,75.912C138.395,77.196 137.015,78.194 135.459,78.817C133.902,79.441 132.217,79.67 130.551,79.486C129.602,79.354 129.193,79.677 128.93,80.659C128.429,83.079 127.074,85.235 125.116,86.733C123.157,88.23 120.726,88.968 118.269,88.81C117.334,88.81 117.115,89.177 116.925,89.91C115.129,96.565 111.302,99.189 104.394,98.354C103.08,98.192 103.168,99.057 102.934,99.732C102.493,101.184 101.741,102.522 100.729,103.651C99.717,104.78 98.471,105.672 97.078,106.265C95.686,106.858 94.18,107.136 92.669,107.082C91.157,107.027 89.676,106.64 88.329,105.948C86.987,105.216 85.725,104.346 84.561,103.353C83.524,102.502 82.853,102.62 82.078,103.675C81.207,105.008 80.023,106.106 78.63,106.873C77.237,107.64 75.678,108.052 74.09,108.073C71.978,108.164 69.899,107.521 68.204,106.253C66.509,104.984 65.302,103.168 64.787,101.11C64.73,100.644 64.509,100.215 64.163,99.9C63.817,99.585 63.37,99.405 62.903,99.395C60.875,99.258 58.948,98.459 57.416,97.119C55.884,95.78 54.831,93.974 54.417,91.977C54.403,91.783 54.35,91.593 54.261,91.42C54.173,91.247 54.051,91.093 53.903,90.967C53.755,90.842 53.583,90.747 53.398,90.689C53.213,90.631 53.018,90.61 52.825,90.628C50.731,90.559 48.723,89.777 47.13,88.41C45.538,87.043 44.456,85.173 44.063,83.107C44.054,82.927 44.008,82.751 43.929,82.589C43.849,82.427 43.738,82.284 43.601,82.167C43.464,82.05 43.305,81.963 43.133,81.91C42.961,81.858 42.781,81.841 42.602,81.861C35.592,81.172 31.897,75.294 34.336,68.667C34.686,67.729 34.569,67.201 33.752,66.688C30.261,64.489 26.771,62.29 23.295,60.033C23.014,59.842 22.684,59.741 22.345,59.741C22.007,59.741 21.676,59.842 21.396,60.033C20.606,60.415 19.739,60.613 18.862,60.613C17.985,60.613 17.119,60.415 16.328,60.033C12.239,58.381 8.135,56.758 4.016,55.165C3.102,54.865 2.261,54.374 1.549,53.725C0.837,53.075 0.269,52.282 -0.117,51.398L0,47.894ZM63.268,48.891C59.892,48.829 56.633,47.637 54.008,45.505C49.729,41.913 49.948,36.826 54.607,33.777C59.554,30.471 64.263,26.822 68.701,22.855C69.022,22.562 69.606,22.356 69.489,21.858C69.372,21.36 68.73,21.448 68.321,21.374C63.462,20.611 58.545,20.292 53.629,20.421C49.348,20.583 45.094,19.682 41.244,17.797C40.119,17.24 39.564,17.445 39.097,18.647C34.657,30.063 30.174,41.468 25.646,52.864C25.504,53.084 25.412,53.333 25.377,53.593C25.342,53.853 25.364,54.118 25.442,54.368C25.52,54.619 25.652,54.849 25.829,55.042C26.005,55.236 26.222,55.388 26.464,55.488C30.173,57.775 33.839,60.15 37.476,62.539C38.221,63.023 38.644,62.95 39.17,62.29C40.134,61.088 41.112,59.915 42.091,58.787C43.196,57.435 44.663,56.429 46.319,55.886C47.975,55.343 49.751,55.286 51.438,55.723C53.145,56.07 54.714,56.908 55.956,58.134C57.198,59.359 58.058,60.92 58.434,62.627C58.481,63.069 58.692,63.477 59.025,63.77C59.357,64.063 59.787,64.221 60.23,64.211C62.253,64.327 64.183,65.107 65.721,66.431C67.26,67.756 68.322,69.551 68.744,71.541C68.993,72.508 69.314,72.933 70.395,73.007C72.254,73.02 74.06,73.635 75.544,74.76C77.027,75.885 78.11,77.46 78.632,79.252C78.789,79.969 79.178,80.613 79.738,81.085C80.298,81.557 80.997,81.83 81.728,81.861C83.184,82.107 84.561,82.693 85.749,83.572C86.937,84.452 87.901,85.6 88.564,86.924C89.227,88.248 89.57,89.71 89.564,91.191C89.559,92.673 89.206,94.132 88.534,95.451C88.066,96.404 86.562,97.181 87.263,98.383C88.044,99.279 88.985,100.02 90.038,100.567C90.364,100.796 90.718,100.983 91.09,101.125C92.193,101.599 93.432,101.646 94.568,101.256C95.704,100.866 96.655,100.067 97.238,99.013C97.814,98.026 97.984,96.851 97.711,95.74C97.438,94.629 96.745,93.668 95.778,93.062C94.434,92.006 93.047,91.024 91.761,89.924C91.196,89.479 90.828,88.828 90.735,88.113C90.642,87.398 90.832,86.674 91.265,86.098C91.479,85.814 91.749,85.576 92.057,85.398C92.364,85.219 92.705,85.105 93.057,85.061C93.41,85.018 93.768,85.045 94.11,85.143C94.451,85.24 94.77,85.406 95.047,85.629C95.617,85.995 96.128,86.435 96.683,86.846C99.078,88.649 101.4,90.555 103.898,92.226C104.961,92.956 106.268,93.235 107.535,93.002C108.801,92.768 109.925,92.041 110.66,90.98C111.012,90.446 111.253,89.848 111.37,89.219C111.487,88.591 111.477,87.945 111.341,87.32C111.205,86.695 110.945,86.104 110.577,85.582C110.209,85.06 109.741,84.617 109.199,84.28C107.052,82.609 104.818,80.982 102.759,79.266C102.253,78.933 101.883,78.429 101.714,77.846C101.546,77.263 101.59,76.639 101.839,76.085C102.026,75.574 102.37,75.136 102.822,74.833C103.273,74.53 103.808,74.378 104.351,74.399C105.202,74.445 106.01,74.793 106.629,75.382C109.696,77.713 112.704,80.131 115.844,82.345C116.356,82.734 116.941,83.014 117.564,83.169C118.187,83.323 118.835,83.348 119.468,83.242C120.101,83.137 120.705,82.902 121.245,82.554C121.785,82.206 122.248,81.75 122.606,81.216C122.993,80.705 123.269,80.119 123.416,79.494C123.564,78.87 123.58,78.222 123.463,77.591C123.346,76.96 123.099,76.36 122.738,75.831C122.376,75.302 121.909,74.854 121.365,74.517C118.809,72.523 116.224,70.588 113.741,68.535C113.468,68.329 113.239,68.069 113.068,67.771C112.898,67.472 112.789,67.143 112.75,66.801C112.71,66.46 112.74,66.114 112.838,65.785C112.935,65.455 113.099,65.149 113.318,64.885C113.732,64.332 114.341,63.96 115.021,63.845C115.7,63.731 116.398,63.883 116.969,64.269C117.587,64.664 118.182,65.095 118.751,65.559C121.905,67.978 125.016,70.427 128.2,72.787C128.716,73.235 129.319,73.571 129.971,73.772C130.623,73.974 131.309,74.036 131.987,73.956C132.664,73.876 133.318,73.655 133.906,73.308C134.493,72.96 135.002,72.493 135.4,71.936C136.136,70.804 136.396,69.425 136.122,68.101C135.849,66.777 135.064,65.615 133.94,64.87C127.63,60.15 121.292,55.488 114.954,50.811C114.703,50.584 114.41,50.41 114.092,50.3C113.773,50.189 113.435,50.143 113.099,50.166C101.97,51.369 92.521,47.704 84.474,40.095C83.51,39.171 82.809,39.025 81.786,39.963C79.601,41.948 77.217,43.701 74.674,45.197C71.241,47.37 67.318,48.64 63.268,48.891ZM18.46,54.755C19.264,54.755 19.351,54.125 19.541,53.641C24.974,39.86 30.363,26.08 35.811,12.314C36.234,11.215 36.015,10.672 34.92,10.262C31.371,8.913 27.837,7.55 24.346,6.069C23.032,5.512 22.462,5.849 21.966,7.139C16.649,20.773 11.294,34.392 5.9,47.997C5.389,49.316 5.769,49.8 6.967,50.24C10.501,51.574 14.006,53.01 17.54,54.418L18.46,54.755ZM53.672,84.955C54.175,84.976 54.676,84.877 55.133,84.665C55.59,84.453 55.991,84.136 56.301,83.738C58.492,81.216 60.683,78.695 62.786,76.085C63.426,75.308 63.735,74.308 63.645,73.303C63.555,72.298 63.073,71.37 62.304,70.72C61.944,70.372 61.52,70.098 61.055,69.915C60.591,69.732 60.095,69.643 59.595,69.652C59.096,69.662 58.604,69.77 58.146,69.971C57.689,70.172 57.275,70.461 56.929,70.822C54.549,73.402 52.314,76.115 50.109,78.856C49.642,79.441 49.373,80.16 49.341,80.909C49.31,81.658 49.517,82.397 49.934,83.019C50.287,83.688 50.832,84.234 51.499,84.587C52.166,84.94 52.923,85.084 53.672,84.999L53.672,84.955ZM53.263,64.87C53.302,64.07 53.078,63.279 52.628,62.617C52.177,61.956 51.523,61.46 50.766,61.205C50.007,60.904 49.171,60.856 48.383,61.067C47.594,61.278 46.894,61.737 46.385,62.378C44.369,64.665 42.383,67.011 40.441,69.371C38.732,71.438 38.819,73.769 40.557,75.235C42.295,76.701 44.647,76.613 46.516,74.502C48.385,72.391 50.401,69.913 52.358,67.626C53.005,66.878 53.33,65.903 53.263,64.914L53.263,64.87ZM84.109,91.258C84.138,90.447 83.919,89.646 83.48,88.965C83.041,88.283 82.404,87.753 81.655,87.447C80.919,87.1 80.09,87.008 79.297,87.186C78.504,87.364 77.792,87.801 77.274,88.429C75.185,90.745 73.199,93.135 71.183,95.524C69.445,97.621 69.518,100.054 71.329,101.564C73.14,103.074 75.463,102.84 77.288,100.714C79.114,98.588 81.027,96.316 82.896,94.102C83.648,93.363 84.083,92.358 84.109,91.302L84.109,91.258ZM69.898,78.519C69.388,78.472 68.875,78.543 68.396,78.726C67.918,78.909 67.487,79.199 67.138,79.574C64.889,82.184 62.596,84.764 60.478,87.491C59.872,88.293 59.6,89.3 59.717,90.3C59.834,91.3 60.332,92.216 61.106,92.856C61.865,93.519 62.852,93.857 63.856,93.8C64.86,93.742 65.802,93.293 66.481,92.548C68.774,90.056 70.95,87.447 73.082,84.793C73.579,84.199 73.877,83.462 73.932,82.688C73.987,81.914 73.797,81.142 73.389,80.483C73.063,79.851 72.557,79.33 71.935,78.988C71.314,78.646 70.604,78.498 69.898,78.563L69.898,78.519Z" fill="#1A44B2"/>
</svg>
