<svg width="66" height="60" viewBox="0 0 66 60" fill="none" xmlns="http://www.w3.org/2000/svg">
<path d="M60.17 30.73V12.31C60.17 11.6885 59.9238 11.0922 59.4852 10.6518C59.0467 10.2114 58.4515 9.96264 57.83 9.95999C57.2085 9.96264 56.6133 10.2114 56.1748 10.6518C55.7362 11.0922 55.49 11.6885 55.49 12.31V16.44C54.0393 14.2533 52.128 12.4103 49.89 11.04C44.76 7.96732 38.8686 6.40091 32.89 6.51999C26.9316 6.41167 21.0624 7.9777 15.95 11.04C13.7104 12.4082 11.7987 14.2516 10.35 16.44V12.31C10.3607 11.6901 10.1261 11.0911 9.69717 10.6434C9.26824 10.1957 8.67978 9.93572 8.06 9.91998C7.43847 9.92263 6.84331 10.1714 6.40476 10.6118C5.96621 11.0522 5.72 11.6485 5.72 12.27V30.69C4.18932 30.7291 2.73451 31.3648 1.66591 32.4614C0.597306 33.5581 -0.000499688 35.0288 3.13396e-07 36.56V57.24C3.13396e-07 57.8606 0.246529 58.4558 0.685364 58.8946C1.1242 59.3335 1.71939 59.58 2.34 59.58C2.9606 59.58 3.55579 59.3335 3.99463 58.8946C4.43346 58.4558 4.67999 57.8606 4.67999 57.24V48.41C5.07495 48.4902 5.47699 48.5304 5.88001 48.53H60.01C60.413 48.5304 60.815 48.4902 61.21 48.41V57.24C61.2047 57.5515 61.2616 57.8609 61.3774 58.1501C61.4933 58.4393 61.6657 58.7024 61.8846 58.9241C62.1035 59.1458 62.3644 59.3215 62.6521 59.441C62.9398 59.5605 63.2485 59.6214 63.56 59.62C64.1806 59.62 64.7758 59.3734 65.2146 58.9346C65.6535 58.4958 65.9 57.9006 65.9 57.28V36.6C65.9004 35.0671 65.3012 33.5949 64.2305 32.498C63.1598 31.4011 61.7024 30.7665 60.17 30.73ZM32.94 11.21C42.36 11.21 50.49 15.35 52.37 20.68H13.56C15.4 15.35 23.56 11.21 32.94 11.21ZM55.49 25.36V30.72H10.4V25.36H55.49ZM61.21 41.27V42.69C61.21 43.0082 61.0836 43.3135 60.8585 43.5385C60.6335 43.7636 60.3283 43.89 60.01 43.89H5.88001C5.56175 43.89 5.25651 43.7636 5.03146 43.5385C4.80642 43.3135 4.67999 43.0082 4.67999 42.69V36.6C4.67999 36.2817 4.80642 35.9765 5.03146 35.7515C5.25651 35.5264 5.56175 35.4 5.88001 35.4H60.01C60.3283 35.4 60.6335 35.5264 60.8585 35.7515C61.0836 35.9765 61.21 36.2817 61.21 36.6V41.27Z" fill="#1A44B2"/>
<path d="M8.05998 7.16C9.00946 7.16 9.92005 6.78283 10.5914 6.11145C11.2628 5.44007 11.64 4.52949 11.64 3.58002C11.6373 2.63135 11.2593 1.72229 10.5885 1.05148C9.91771 0.380674 9.00865 0.00263886 8.05998 0C7.11132 0.00263886 6.20226 0.380674 5.53145 1.05148C4.86064 1.72229 4.48262 2.63135 4.47998 3.58002C4.47998 4.52949 4.85715 5.44007 5.52853 6.11145C6.19991 6.78283 7.11051 7.16 8.05998 7.16Z" fill="#1A44B2"/>
<path d="M57.83 7.16C58.3001 7.16 58.7657 7.06742 59.2 6.88751C59.6343 6.7076 60.029 6.44388 60.3614 6.11145C60.6939 5.77902 60.9576 5.38436 61.1375 4.95001C61.3174 4.51567 61.41 4.05015 61.41 3.58002C61.4074 2.63135 61.0293 1.72229 60.3585 1.05148C59.6877 0.380674 58.7787 0.00263886 57.83 0C56.8813 0.00263886 55.9723 0.380674 55.3015 1.05148C54.6307 1.72229 54.2526 2.63135 54.25 3.58002C54.25 4.52949 54.6272 5.44007 55.2986 6.11145C55.9699 6.78283 56.8805 7.16 57.83 7.16Z" fill="#1A44B2"/>
</svg>
