<svg width="74" height="68" viewBox="0 0 74 68" fill="none" xmlns="http://www.w3.org/2000/svg">
<path d="M73.4483 34.4784C73.4457 32.8876 72.8161 31.362 71.6959 30.2325C70.5757 29.103 69.0554 28.4606 67.4647 28.4449H10.182V8.85874C10.182 7.77341 10.6125 6.73236 11.379 5.96398C12.1455 5.1956 13.1855 4.76259 14.2708 4.75995H15.3379C15.8802 4.76211 16.4167 4.87166 16.9165 5.08218C17.4163 5.29271 17.8695 5.6001 18.2499 5.98662L18.0704 6.16612C16.6058 7.63378 15.7832 9.6225 15.7832 11.6959C15.7832 13.7693 16.6058 15.7581 18.0704 17.2257L19.0676 18.223C19.2827 18.4408 19.5389 18.6139 19.8214 18.732C20.1039 18.8501 20.4069 18.911 20.7131 18.9111C21.0208 18.9112 21.3254 18.8505 21.6096 18.7324C21.8937 18.6143 22.1516 18.4411 22.3686 18.223L32.5606 8.04098C32.996 7.60203 33.2403 7.00876 33.2403 6.39048C33.2403 5.7722 32.996 5.17899 32.5606 4.74004L31.5633 3.74278C30.8397 3.01432 29.9788 2.4365 29.0305 2.0428C28.0822 1.6491 27.0653 1.44728 26.0385 1.44903C24.4556 1.4295 22.9043 1.89213 21.5907 2.77541C20.7718 1.92824 19.791 1.25425 18.7066 0.793425C17.6222 0.332597 16.4563 0.0943199 15.278 0.0927734H14.211C11.8869 0.0954129 9.65879 1.01981 8.01543 2.66317C6.37207 4.30653 5.44768 6.53468 5.44504 8.85874V28.4748C3.95834 28.6228 2.57914 29.3161 1.57359 30.4211C0.568044 31.5261 0.00745325 32.9644 0 34.4584C0.00410275 35.6738 0.374589 36.8598 1.06309 37.8614C1.75159 38.863 2.72611 39.6338 3.8594 40.073V47.7718C3.86155 51.0114 4.98062 54.1511 7.02796 56.6617C9.07529 59.1722 11.9257 60.9001 15.0985 61.554L13.104 63.5485C12.886 63.7645 12.713 64.0216 12.5949 64.3049C12.4768 64.5882 12.416 64.8921 12.416 65.199C12.416 65.5059 12.4768 65.8097 12.5949 66.093C12.713 66.3763 12.886 66.6334 13.104 66.8494C13.3184 67.0682 13.5745 67.2418 13.8571 67.36C14.1397 67.4782 14.4432 67.5385 14.7495 67.5376C15.0572 67.5377 15.3618 67.4769 15.6459 67.3588C15.93 67.2407 16.188 67.0676 16.4049 66.8494L21.3912 61.8631H51.9972L56.9835 66.8494C57.1979 67.0682 57.454 67.2418 57.7366 67.36C58.0192 67.4782 58.3227 67.5385 58.629 67.5376C58.9367 67.5377 59.2413 67.4769 59.5254 67.3588C59.8095 67.2407 60.0675 67.0676 60.2844 66.8494C60.7199 66.4105 60.9642 65.8173 60.9642 65.199C60.9642 64.5807 60.7199 63.9875 60.2844 63.5485L58.2899 61.554C61.4619 60.8984 64.3112 59.17 66.3582 56.6598C68.4053 54.1496 69.525 51.0109 69.529 47.7718V40.073C70.6704 39.6446 71.6555 38.881 72.3549 37.8825C73.0544 36.884 73.4355 35.6974 73.4483 34.4784ZM26.0185 6.08632C26.5528 6.08738 27.0779 6.2247 27.5443 6.48525L20.8029 13.2168C20.476 12.618 20.3508 11.9298 20.446 11.2543C20.5412 10.5788 20.8517 9.95209 21.3314 9.46705L23.7947 7.01377C24.0815 6.72266 24.4229 6.49094 24.7994 6.3318C25.1758 6.17267 25.5799 6.08924 25.9886 6.08632H26.0185ZM6.07332 33.1221H67.4448C67.8045 33.1221 68.1494 33.265 68.4038 33.5193C68.6581 33.7737 68.801 34.1187 68.801 34.4784C68.801 34.8381 68.6581 35.183 68.4038 35.4374C68.1494 35.6917 67.8045 35.8346 67.4448 35.8346H6.07332C5.89521 35.8346 5.71885 35.7996 5.5543 35.7314C5.38974 35.6632 5.24022 35.5633 5.11428 35.4374C4.98834 35.3114 4.88843 35.162 4.82027 34.9974C4.75211 34.8329 4.71704 34.6565 4.71704 34.4784C4.7168 34.1271 4.85283 33.7895 5.09649 33.5365C5.34016 33.2835 5.67246 33.135 6.02345 33.1221H6.07332ZM64.9117 47.7918C64.9091 50.2851 63.9174 52.6756 62.1544 54.4386C60.3913 56.2017 58.0009 57.1933 55.5075 57.196H17.9407C15.4474 57.1933 13.0569 56.2017 11.2939 54.4386C9.53084 52.6756 8.53919 50.2851 8.53655 47.7918V40.5716H64.9117V47.7918Z" fill="#1A44B2"/>
<path d="M29.5688 23.688C29.6736 23.7926 29.7981 23.8755 29.935 23.9319C30.0718 23.9884 30.2185 24.0173 30.3666 24.0171C30.6687 24.0181 30.959 23.8998 31.1744 23.688C31.3845 23.4737 31.5022 23.1854 31.5022 22.8852C31.5022 22.5851 31.3845 22.2968 31.1744 22.0824L30.0275 20.9456C29.9229 20.8406 29.7985 20.7574 29.6616 20.7006C29.5247 20.6438 29.378 20.6145 29.2297 20.6145C29.0815 20.6145 28.9347 20.6438 28.7978 20.7006C28.6609 20.7574 28.5366 20.8406 28.4319 20.9456C28.3258 21.0496 28.2415 21.1737 28.1839 21.3106C28.1263 21.4476 28.0967 21.5948 28.0967 21.7434C28.0967 21.892 28.1263 22.0391 28.1839 22.1761C28.2415 22.3131 28.3258 22.4372 28.4319 22.5412L29.5688 23.688Z" fill="#1A44B2"/>
<path d="M32.9895 22.5511L34.1363 23.688C34.2412 23.7926 34.3656 23.8754 34.5025 23.9319C34.6394 23.9883 34.786 24.0173 34.9341 24.017C35.0822 24.0173 35.2289 23.9883 35.3658 23.9319C35.5027 23.8754 35.6271 23.7926 35.7319 23.688C35.8384 23.5831 35.9229 23.4582 35.9806 23.3203C36.0383 23.1825 36.068 23.0346 36.068 22.8852C36.068 22.7358 36.0383 22.5879 35.9806 22.45C35.9229 22.3122 35.8384 22.1872 35.7319 22.0823L34.595 20.9455C34.3807 20.7354 34.0925 20.6177 33.7923 20.6177C33.4921 20.6177 33.2038 20.7354 32.9895 20.9455C32.7793 21.1599 32.6616 21.4481 32.6616 21.7483C32.6616 22.0485 32.7793 22.3367 32.9895 22.5511Z" fill="#1A44B2"/>
<path d="M28.8909 17.525L27.754 16.3781C27.5396 16.168 27.2514 16.0503 26.9512 16.0503C26.651 16.0503 26.3628 16.168 26.1484 16.3781C25.9383 16.5925 25.8206 16.8807 25.8206 17.1809C25.8206 17.4811 25.9383 17.7693 26.1484 17.9837L27.2853 19.1206C27.3908 19.2277 27.5165 19.3129 27.6552 19.3711C27.7939 19.4293 27.9427 19.4594 28.0931 19.4597C28.2421 19.4603 28.3897 19.4306 28.5269 19.3723C28.664 19.314 28.7879 19.2283 28.8909 19.1206C28.9958 19.0159 29.0791 18.8916 29.1359 18.7547C29.1927 18.6178 29.2219 18.471 29.2219 18.3228C29.2219 18.1746 29.1927 18.0278 29.1359 17.8909C29.0791 17.754 28.9958 17.6297 28.8909 17.525Z" fill="#1A44B2"/>
<path d="M32.3113 16.3782C32.2066 16.2732 32.0823 16.19 31.9454 16.1332C31.8085 16.0764 31.6617 16.0471 31.5135 16.0471C31.3653 16.0471 31.2185 16.0764 31.0816 16.1332C30.9447 16.19 30.8204 16.2732 30.7157 16.3782C30.6093 16.483 30.5247 16.608 30.467 16.7458C30.4094 16.8836 30.3796 17.0316 30.3796 17.181C30.3796 17.3304 30.4094 17.4783 30.467 17.6161C30.5247 17.7539 30.6093 17.8789 30.7157 17.9838L31.8526 19.1206C31.9555 19.2284 32.0794 19.314 32.2166 19.3723C32.3537 19.4306 32.5013 19.4604 32.6504 19.4597C32.7994 19.4604 32.947 19.4306 33.0842 19.3723C33.2214 19.314 33.3452 19.2284 33.4482 19.1206C33.5543 19.0167 33.6386 18.8925 33.6962 18.7555C33.7538 18.6185 33.7834 18.4714 33.7834 18.3229C33.7834 18.1743 33.7538 18.0271 33.6962 17.8901C33.6386 17.7531 33.5543 17.6291 33.4482 17.5251L32.3113 16.3782Z" fill="#1A44B2"/>
<path d="M30.6459 11.7507C30.5394 11.8555 30.4549 11.9805 30.3972 12.1183C30.3395 12.2561 30.3098 12.4041 30.3098 12.5535C30.3098 12.7029 30.3395 12.8508 30.3972 12.9886C30.4549 13.1264 30.5394 13.2514 30.6459 13.3563L31.7828 14.4931C31.8876 14.5977 32.012 14.6806 32.1489 14.7371C32.2858 14.7936 32.4325 14.8225 32.5806 14.8223C32.8823 14.8211 33.1718 14.7031 33.3884 14.4931C33.5985 14.2788 33.7162 13.9905 33.7162 13.6904C33.7162 13.3902 33.5985 13.1019 33.3884 12.8876L32.2415 11.7507C32.1368 11.6457 32.0125 11.5625 31.8756 11.5057C31.7387 11.4489 31.5919 11.4197 31.4437 11.4197C31.2955 11.4197 31.1487 11.4489 31.0118 11.5057C30.8749 11.5625 30.7506 11.6457 30.6459 11.7507Z" fill="#1A44B2"/>
<path d="M36.1906 17.7643C36.2966 17.87 36.4226 17.9536 36.5613 18.0101C36.7 18.0666 36.8486 18.0949 36.9983 18.0933C37.1464 18.0936 37.2931 18.0647 37.43 18.0082C37.5669 17.9517 37.6913 17.8688 37.7962 17.7643C38.0063 17.5499 38.124 17.2617 38.124 16.9615C38.124 16.6613 38.0063 16.373 37.7962 16.1586L36.6493 15.0218C36.5453 14.9156 36.4212 14.8313 36.2842 14.7737C36.1472 14.7162 36.0001 14.6865 35.8515 14.6865C35.7029 14.6865 35.5558 14.7162 35.4188 14.7737C35.2818 14.8313 35.1577 14.9156 35.0537 15.0218C34.9488 15.1265 34.8655 15.2508 34.8087 15.3877C34.7519 15.5246 34.7227 15.6714 34.7227 15.8196C34.7227 15.9678 34.7519 16.1145 34.8087 16.2514C34.8655 16.3883 34.9488 16.5127 35.0537 16.6174L36.1906 17.7643Z" fill="#1A44B2"/>
</svg>
