<svg width="138" height="136" viewBox="0 0 138 136" fill="none" xmlns="http://www.w3.org/2000/svg" xmlns:xlink="http://www.w3.org/1999/xlink">
<path d="M0.037,130.132L134.156,130.132C135.975,130.132 135.988,130.132 135.975,132.001C135.975,133.326 135.975,134.65 135.913,135.975C91.021,135.975 46.126,135.975 1.225,135.975C0.235,135.975 -0.012,135.752 -0.012,134.737C0.099,133.239 0.037,131.679 0.037,130.132Z" fill="#1A44B2"/>
<path d="M0.037,90.588C3.614,90.588 7.192,90.588 10.769,90.588C11.165,90.647 11.568,90.551 11.895,90.321C12.222,90.09 12.448,89.743 12.527,89.35C16.215,78.934 19.929,68.534 23.667,58.151C24.051,57.099 23.778,56.913 22.726,56.913C19.372,56.913 19.657,57.285 19.657,53.731C19.657,50.612 19.533,51.032 22.355,51.02C25.177,51.008 28.012,51.02 30.834,51.02C32.418,51.02 32.48,51.107 31.948,52.592C28.325,62.786 24.686,72.979 21.031,83.172C19.619,87.122 18.171,91.071 16.81,95.033C16.727,95.507 16.465,95.93 16.077,96.214C15.689,96.498 15.206,96.62 14.73,96.556C9.779,96.481 4.926,96.556 0.025,96.481L0.037,90.588Z" fill="#1A44B2"/>
<path d="M67.92,96.469L32.493,96.469C30.364,96.469 30.339,96.469 30.785,94.426C33.78,80.395 36.78,66.364 39.784,52.332C39.982,51.404 40.366,50.971 41.381,50.995C44.166,50.995 46.951,50.995 49.736,50.995C50.689,50.995 51.122,51.305 51.073,52.233C51.017,53.339 51.017,54.446 51.073,55.551C51.073,56.554 50.677,56.901 49.736,56.876C48.795,56.851 47.607,56.95 46.555,56.876C45.317,56.765 44.748,57.272 44.5,58.498C43.089,65.295 41.616,72.116 40.168,78.864C39.45,82.231 38.719,85.599 38.014,88.979C37.692,90.502 37.729,90.551 39.252,90.551L96.563,90.551C98.16,90.551 98.209,90.551 97.887,89.003C95.709,78.802 93.534,68.6 91.364,58.399C91.129,57.285 90.671,56.789 89.507,56.876C88.344,56.963 87.205,56.876 86.054,56.876C85.261,56.876 84.816,56.616 84.816,55.725C84.816,54.487 84.816,53.249 84.816,52.011C84.816,51.292 85.113,50.958 85.843,50.971C88.847,50.971 91.855,50.971 94.867,50.971C95.87,50.971 95.944,51.689 96.105,52.382C97.466,58.787 98.832,65.183 100.202,71.572C101.852,79.272 103.503,86.969 105.153,94.661C105.525,96.407 105.463,96.469 103.693,96.469L67.92,96.469Z" fill="#1A44B2"/>
<path d="M65.679,0C80.372,0 90.25,9.372 90.745,21.765C90.758,26.07 89.881,30.331 88.17,34.282C84.247,44.446 78.342,53.459 71.881,62.138C70.878,63.487 69.776,64.75 68.761,66.1C68.167,66.892 67.759,66.818 67.165,66.1C61.768,59.485 56.964,52.409 52.806,44.954C50.114,40.261 47.967,35.277 46.406,30.097C44.475,23.374 44.661,16.862 48.486,10.808C52.979,3.689 59.626,0.21 65.679,0ZM67.957,5.918C64.485,5.877 61.087,6.917 58.233,8.893C55.379,10.869 53.209,13.685 52.026,16.949C50.738,20.939 50.825,25.246 52.273,29.181C55.455,39.37 61.297,48.123 67.387,56.728C67.833,57.359 68.167,57.297 68.625,56.728C69.529,55.415 70.469,54.128 71.373,52.815C76.117,46.199 80.026,39.022 83.009,31.447C84.244,28.454 84.883,25.25 84.89,22.013C84.764,17.642 82.911,13.499 79.737,10.492C76.563,7.484 72.327,5.858 67.957,5.967L67.957,5.918Z" fill="#1A44B2"/>
<path d="M127.632,96.469C125.553,96.469 123.473,96.469 121.443,96.469C120.928,96.564 120.397,96.452 119.963,96.157C119.53,95.863 119.23,95.41 119.128,94.897C114.833,82.727 110.464,70.581 106.144,58.424C105.401,56.344 104.671,54.264 103.891,52.233C103.544,51.292 103.792,50.995 104.794,50.995C108.203,50.995 111.607,50.995 115.006,50.995C115.885,50.995 116.331,51.28 116.319,52.233C116.319,53.381 116.319,54.532 116.319,55.688C116.319,56.579 115.91,56.926 115.081,56.926C114.462,56.926 113.843,56.926 113.224,56.926C112.234,56.851 111.986,57.186 112.32,58.164C113.348,60.9 114.301,63.661 115.279,66.409C117.99,73.974 120.725,81.538 123.387,89.127C123.485,89.618 123.773,90.05 124.188,90.33C124.602,90.611 125.11,90.717 125.602,90.625C128.61,90.551 131.618,90.625 134.614,90.625C135.691,90.625 136.149,90.972 136.087,92.086C136.025,93.142 136.025,94.2 136.087,95.256C136.087,96.246 135.715,96.593 134.762,96.58C132.324,96.444 129.972,96.469 127.632,96.469Z" fill="#1A44B2"/>
<path d="M33.978,42.614C31.589,42.614 29.213,42.614 26.824,42.614C25.809,42.614 25.363,42.304 25.425,41.252C25.487,40.2 25.425,38.949 25.425,37.81C25.425,37.005 25.784,36.683 26.539,36.683C31.49,36.683 36.442,36.683 41.393,36.683C42.198,36.683 42.631,36.993 42.631,37.922C42.631,39.073 42.631,40.224 42.631,41.363C42.631,42.502 42.26,42.688 41.306,42.676C38.831,42.589 36.405,42.614 33.978,42.614Z" fill="#1A44B2"/>
<path d="M101.96,42.614C99.484,42.614 97.108,42.614 94.681,42.614C93.716,42.614 93.32,42.267 93.369,41.301C93.419,40.336 93.369,38.999 93.369,37.86C93.369,37.092 93.654,36.696 94.446,36.696L109.399,36.696C110.167,36.696 110.526,37.042 110.513,37.835C110.513,39.073 110.513,40.212 110.513,41.4C110.513,42.341 110.117,42.638 109.275,42.638C106.812,42.589 104.386,42.614 101.96,42.614Z" fill="#1A44B2"/>
<path d="M7.155,110.422C8.207,110.422 9.271,110.422 10.336,110.422C11.091,110.422 11.499,110.694 11.487,111.499C11.487,112.737 11.487,114.062 11.487,115.337C11.506,115.471 11.493,115.607 11.45,115.736C11.407,115.864 11.334,115.98 11.238,116.075C11.142,116.17 11.025,116.241 10.896,116.283C10.767,116.325 10.631,116.336 10.497,116.315L3.738,116.315C3.107,116.315 2.711,116.018 2.711,115.362C2.711,114.037 2.711,112.7 2.711,111.375C2.711,110.632 3.169,110.409 3.85,110.422L7.155,110.422Z" fill="#1A44B2"/>
<path d="M24.125,116.327C23.061,116.327 21.996,116.327 20.932,116.327C19.867,116.327 19.632,115.919 19.694,115.089L19.694,114.916C19.483,110.422 19.484,110.422 23.94,110.422C25.091,110.422 26.242,110.422 27.393,110.422C28.185,110.422 28.507,110.769 28.495,111.536C28.495,112.774 28.495,113.926 28.495,115.126C28.495,115.956 28.161,116.365 27.319,116.365C26.205,116.315 25.178,116.327 24.125,116.327Z" fill="#1A44B2"/>
<path d="M41.059,110.422C42.123,110.422 43.188,110.422 44.252,110.422C45.106,110.422 45.49,110.781 45.428,111.66C45.428,112.898 45.428,114.049 45.428,115.238C45.428,116.018 45.094,116.389 44.314,116.377L37.816,116.377C36.974,116.377 36.578,115.981 36.578,115.139C36.578,113.901 36.578,112.749 36.578,111.549C36.578,110.793 36.912,110.422 37.704,110.447C38.893,110.447 39.994,110.422 41.059,110.422Z" fill="#1A44B2"/>
<path d="M58.091,110.422C59.143,110.422 60.208,110.422 61.272,110.422C62.127,110.422 62.51,110.781 62.448,111.66C62.448,112.898 62.448,114.049 62.448,115.238C62.448,116.018 62.114,116.389 61.334,116.377L54.836,116.377C53.994,116.377 53.598,115.981 53.598,115.139C53.598,113.901 53.598,112.749 53.598,111.549C53.598,110.781 53.944,110.422 54.737,110.447C55.913,110.447 56.977,110.422 58.091,110.422Z" fill="#1A44B2"/>
<path d="M75.025,110.422C76.089,110.422 77.154,110.422 78.218,110.422C79.035,110.422 79.456,110.719 79.456,111.586C79.456,112.824 79.456,113.975 79.456,115.164C79.456,115.919 79.184,116.34 78.392,116.34L71.757,116.34C71.613,116.361 71.466,116.35 71.328,116.306C71.189,116.262 71.063,116.187 70.958,116.087C70.852,115.986 70.772,115.863 70.721,115.727C70.671,115.59 70.653,115.444 70.668,115.3C70.668,114.062 70.668,112.737 70.668,111.449C70.668,110.731 71.039,110.422 71.744,110.434L75.025,110.422Z" fill="#1A44B2"/>
<path d="M92.132,110.422C93.147,110.422 94.162,110.422 95.177,110.422C95.994,110.422 96.414,110.682 96.414,111.561C96.414,112.799 96.414,114.037 96.414,115.275C96.437,115.419 96.426,115.566 96.381,115.705C96.337,115.844 96.26,115.97 96.158,116.074C96.055,116.177 95.93,116.256 95.792,116.302C95.654,116.348 95.506,116.361 95.362,116.34L88.728,116.34C87.96,116.34 87.613,115.944 87.613,115.188L87.613,111.474C87.592,111.33 87.604,111.183 87.65,111.046C87.697,110.908 87.775,110.783 87.879,110.681C87.983,110.579 88.11,110.504 88.249,110.461C88.388,110.418 88.535,110.409 88.678,110.434C89.829,110.447 90.98,110.422 92.132,110.422Z" fill="#1A44B2"/>
<path d="M109.065,110.422C110.13,110.422 111.182,110.422 112.246,110.422C113.014,110.422 113.41,110.707 113.397,111.499C113.397,112.737 113.397,113.975 113.397,115.213C113.397,116.005 113.026,116.34 112.271,116.327L105.76,116.327C105.017,116.327 104.596,116.005 104.596,115.226L104.596,111.511C104.596,110.744 104.968,110.41 105.748,110.434C106.849,110.447 107.963,110.422 109.065,110.422Z" fill="#1A44B2"/>
<path d="M126.073,110.434L129.39,110.434C129.521,110.411 129.656,110.42 129.784,110.459C129.911,110.498 130.027,110.568 130.123,110.661C130.218,110.754 130.29,110.868 130.333,110.995C130.376,111.121 130.387,111.256 130.368,111.388L130.368,115.374C130.368,116.055 129.984,116.327 129.365,116.327L122.755,116.327C122.601,116.352 122.442,116.34 122.293,116.293C122.144,116.245 122.008,116.163 121.896,116.054C121.784,115.944 121.7,115.81 121.649,115.662C121.598,115.514 121.583,115.356 121.604,115.201C121.604,113.963 121.604,112.725 121.604,111.487C121.604,110.694 122.025,110.41 122.78,110.434C123.882,110.434 124.996,110.434 126.097,110.434L126.073,110.434Z" fill="#1A44B2"/>
<path d="M59.416,22.693C59.412,21.564 59.632,20.445 60.063,19.402C60.493,18.358 61.126,17.409 61.924,16.611C62.723,15.812 63.671,15.179 64.715,14.749C65.759,14.318 66.877,14.098 68.006,14.101C69.136,14.108 70.253,14.337 71.294,14.777C72.334,15.216 73.278,15.857 74.071,16.662C74.863,17.468 75.489,18.421 75.912,19.469C76.334,20.517 76.546,21.638 76.535,22.768C76.535,25.053 75.632,27.247 74.023,28.87C72.414,30.493 70.229,31.414 67.944,31.434C65.657,31.398 63.477,30.459 61.879,28.822C60.281,27.184 59.396,24.981 59.416,22.693ZM70.556,22.693C70.558,22.352 70.492,22.013 70.362,21.697C70.231,21.38 70.04,21.093 69.798,20.851C69.557,20.61 69.269,20.418 68.953,20.288C68.637,20.158 68.298,20.092 67.957,20.094C67.603,20.079 67.25,20.139 66.921,20.269C66.591,20.398 66.292,20.595 66.043,20.847C65.794,21.098 65.6,21.399 65.473,21.73C65.347,22.061 65.29,22.414 65.308,22.768C65.304,23.478 65.583,24.161 66.081,24.667C66.58,25.172 67.259,25.46 67.969,25.467C68.329,25.461 68.684,25.382 69.012,25.235C69.341,25.089 69.637,24.877 69.882,24.614C70.127,24.35 70.316,24.04 70.438,23.701C70.561,23.363 70.613,23.003 70.593,22.644L70.556,22.693Z" fill="#1A44B2"/>
</svg>
