<svg width="88" height="88" viewBox="0 0 88 88" fill="none" xmlns="http://www.w3.org/2000/svg">
<circle cx="42.5" cy="41.5" r="36.5" fill="#1A44B2"/>
<g clip-path="url(#clip0_449_76)">
<path d="M14.9999 47.5845C15.8613 46.2172 16.8988 46.0818 18.0864 47.1782C20.7944 49.6806 24.0309 49.9063 27.4567 47.8231C28.4056 47.2512 29.2818 46.5692 30.0668 45.7915C31.9331 43.9147 33.8123 42.0638 35.7112 40.2192C36.0375 39.8967 36.0244 39.7161 35.7112 39.4066C34.7781 38.523 33.8645 37.6136 32.964 36.6978C32.2566 35.9972 31.7206 35.1461 31.3969 34.2094C31.0732 33.2728 30.9704 32.2754 31.0963 31.2934C31.2222 30.3115 31.5735 29.371 32.1234 28.5438C32.6733 27.7166 33.4072 27.0245 34.2691 26.5205C37.4752 24.59 40.69 22.6809 43.9135 20.7934C44.6527 20.3118 45.5091 20.0352 46.3934 19.9924C47.2777 19.9496 48.1574 20.1422 48.9407 20.55C49.724 20.9579 50.3822 21.5661 50.8465 22.3111C51.3109 23.0561 51.5644 23.9107 51.5807 24.7856C51.6351 25.685 51.4258 26.5809 50.9778 27.3657C50.5299 28.1504 49.8624 28.7908 49.0554 29.2099L43.6264 32.4347C43.0587 32.77 43.0587 32.7765 43.5154 33.2215C44.964 34.6597 46.4192 36.098 47.9852 37.6394C47.6851 34.7113 48.5921 32.4153 51.0195 30.8481C51.7221 30.3911 52.5103 30.078 53.3374 29.9274C54.1646 29.7767 55.0139 29.7915 55.8352 29.971C57.4346 30.2832 58.8604 31.1696 59.8376 32.4594C60.8148 33.7492 61.2742 35.351 61.1272 36.9558C60.8531 40.0064 58.2822 43.4052 53.1859 42.8377L55.0521 44.6306C55.9918 45.5336 56.8727 46.501 57.8711 47.3394C59.2799 48.5688 61.1073 49.2255 62.986 49.1776C64.8647 49.1298 66.6554 48.3809 67.9983 47.0814C68.2972 46.7626 68.6982 46.5553 69.1337 46.4945C69.4806 46.4512 69.8324 46.5171 70.1393 46.6826C70.4462 46.8482 70.6925 47.1051 70.8433 47.4168C71.0012 47.7343 71.0521 48.0933 70.9887 48.4414C70.9253 48.7896 70.7509 49.1085 70.491 49.3517C68.8854 50.9536 66.797 51.997 64.5399 52.3249C61.7261 52.8182 58.829 52.1973 56.4747 50.5964C56.3534 50.5069 56.2044 50.4618 56.0533 50.4688C55.9021 50.4759 55.7581 50.5347 55.6459 50.6351C53.7582 51.8865 51.5234 52.5266 49.2512 52.4668C47.1997 52.4251 45.203 51.8053 43.4958 50.6803C43.3529 50.5628 43.1728 50.4984 42.9869 50.4984C42.8009 50.4984 42.6209 50.5628 42.4779 50.6803C38.3887 53.1569 34.3082 53.1332 30.2365 50.6093C30.1331 50.5238 30.0026 50.4769 29.8678 50.4769C29.733 50.4769 29.6025 50.5238 29.4991 50.6093C27.4986 51.9629 25.1006 52.623 22.6802 52.4861C19.957 52.3773 17.3773 51.25 15.4632 49.3323C15.2877 49.1314 15.1305 48.9156 14.9934 48.6874L14.9999 47.5845ZM49.6557 49.1001C50.8104 49.1206 51.9512 48.8498 52.9706 48.3133C53.6231 47.9779 53.6231 47.965 53.1076 47.4426L39.3588 33.8535C38.2169 32.7249 38.3539 31.6285 39.7242 30.8158C42.1386 29.3798 44.5573 27.9458 46.9803 26.5141C47.2713 26.3631 47.5375 26.1696 47.7699 25.94C47.9908 25.7091 48.1319 25.4149 48.1729 25.0997C48.2139 24.7845 48.1528 24.4645 47.9983 24.1858C47.8495 23.9043 47.6154 23.6759 47.3287 23.5325C47.0421 23.389 46.7172 23.3379 46.3996 23.3861C46.0413 23.4532 45.7012 23.5938 45.4012 23.7988L36.2658 29.2164C34.0994 30.5063 33.8123 32.7958 35.6133 34.5695C36.9184 35.8593 38.1843 37.1106 39.4697 38.3876C40.4616 39.3679 40.4551 40.2385 39.4697 41.2318C37.2968 43.3794 35.1239 45.54 32.9445 47.6812C32.6051 48.0166 32.6443 48.1391 33.0554 48.3262C34.4288 48.9993 35.9753 49.2485 37.494 49.0415C39.0126 48.8345 40.4331 48.1807 41.5709 47.1653C42.6019 46.2366 43.3458 46.243 44.3833 47.1653C45.8161 48.4685 47.7096 49.1634 49.6557 49.1001ZM54.5366 33.2151C54.1175 33.2065 53.7009 33.2805 53.311 33.4327C52.9211 33.5849 52.5658 33.8124 52.2658 34.1017C51.9657 34.3911 51.727 34.7365 51.5634 35.118C51.3999 35.4995 51.3148 35.9094 51.3131 36.3237C51.313 37.1679 51.6477 37.9785 52.2456 38.5814C52.8434 39.1844 53.6566 39.5316 54.5105 39.5484C55.3564 39.5468 56.1673 39.2153 56.7673 38.6259C57.3672 38.0366 57.7076 37.2371 57.7145 36.4011C57.7287 35.9827 57.6566 35.5659 57.5025 35.1759C57.3485 34.786 57.1157 34.4311 56.8183 34.133C56.521 33.8349 56.1653 33.5998 55.7731 33.442C55.3808 33.2842 54.9601 33.2069 54.5366 33.2151Z" fill="white"/>
<path d="M15 54.0661C15.8613 52.7053 16.8532 52.5763 18.0865 53.6598C19.5142 54.9546 21.3858 55.666 23.3234 55.6505C25.2611 55.6349 27.1206 54.8935 28.5269 53.576C29.46 52.7246 30.2887 52.7182 31.2153 53.576C32.6258 54.895 34.4938 55.63 36.4356 55.63C38.3773 55.63 40.2453 54.895 41.6558 53.576C41.8168 53.3828 42.0191 53.2272 42.2481 53.1204C42.4771 53.0136 42.7272 52.9582 42.9804 52.9582C43.2337 52.9582 43.4838 53.0136 43.7128 53.1204C43.9418 53.2272 44.1441 53.3828 44.3051 53.576C45.7155 54.895 47.5835 55.63 49.5253 55.63C51.467 55.63 53.3351 54.895 54.7455 53.576C55.6721 52.7311 56.5008 52.7375 57.4405 53.576C58.8615 54.915 60.7496 55.6619 62.7129 55.6619C64.6763 55.6619 66.5643 54.915 67.9853 53.576C68.1398 53.3983 68.3296 53.2539 68.5429 53.1518C68.7562 53.0497 68.9885 52.992 69.2253 52.9823C69.4621 52.9727 69.6984 53.0112 69.9195 53.0956C70.1406 53.1799 70.3418 53.3083 70.5106 53.4728C70.6761 53.6465 70.8031 53.8525 70.8835 54.0775C70.9639 54.3025 70.9959 54.5417 70.9774 54.7796C70.959 55.0175 70.8906 55.249 70.7765 55.4594C70.6624 55.6697 70.5052 55.8541 70.3149 56.001C68.5013 57.6967 66.162 58.7383 63.6753 58.9571C61.1886 59.176 58.6999 58.5594 56.6118 57.207C56.4688 57.0895 56.2887 57.0252 56.1028 57.0252C55.9169 57.0252 55.7368 57.0895 55.5938 57.207C51.509 59.6879 47.4285 59.6664 43.3524 57.1425C43.2439 57.0516 43.1063 57.0018 42.9641 57.0018C42.8219 57.0018 42.6843 57.0516 42.5759 57.1425C40.6301 58.4436 38.3129 59.0925 35.9657 58.9935C33.9693 58.9269 32.0318 58.3079 30.3736 57.207C30.2322 57.0888 30.053 57.024 29.8679 57.024C29.6827 57.024 29.5035 57.0888 29.3622 57.207C27.2789 58.5653 24.7932 59.1895 22.3066 58.9788C19.8201 58.7682 17.4781 57.7349 15.6591 56.0461C15.3983 55.795 15.1782 55.5057 15.0065 55.1883L15 54.0661Z" fill="white"/>
</g>
<defs>
<clipPath id="clip0_449_76">
<rect width="56" height="39" fill="white" transform="translate(15 20)"/>
</clipPath>
</defs>
</svg>
