<svg width="73" height="73" viewBox="0 0 73 73" fill="none" xmlns="http://www.w3.org/2000/svg">
<circle cx="36.5" cy="36.5" r="36.5" fill="white"/>
<path d="M72.7535 36.8411C72.7687 30.1107 70.9548 23.5053 67.5096 17.7451C64.0645 11.985 59.1202 7.29115 53.2162 4.17555C47.3121 1.05994 40.6748 -0.357859 34.028 0.0767165C27.3812 0.511292 20.9801 2.78155 15.5226 6.63999C10.0651 10.4984 5.76069 15.7968 3.07886 21.9576C0.397037 28.1183 -0.559278 34.9049 0.314105 41.5772C1.18749 48.2495 3.85713 54.5514 8.03185 59.7958C12.2066 65.0401 17.7262 69.0257 23.9888 71.3177V43.9485L18.7396 34.0299C17.9974 31.7567 17.9888 29.3041 18.7152 27.0257C19.4417 24.7473 20.8655 22.7609 22.7814 21.353L36.4293 11.3813L50.077 21.353C51.9803 22.7716 53.3946 24.7586 54.1198 27.0333C54.8451 29.308 54.8448 31.7554 54.119 34.0299L48.8698 43.9485V71.2646C55.8609 68.6895 61.9006 64.0069 66.1722 57.8503C70.4438 51.6936 72.7412 44.36 72.7535 36.8411Z" fill="#1A44B2"/>
</svg>
