<svg width="71" height="72" viewBox="0 0 71 72" fill="none" xmlns="http://www.w3.org/2000/svg">
<path d="M35.4844 71.7115C55.082 71.7115 70.9689 55.6583 70.9689 35.8557C70.9689 16.0532 55.082 0 35.4844 0C15.8869 0 0 16.0532 0 35.8557C0 55.6583 15.8869 71.7115 35.4844 71.7115Z" fill="#1A44B2"/>
<path d="M23.8837 14.928H31.2326C32.9728 14.928 34.6417 15.6265 35.8722 16.8699C37.1028 18.1133 37.7941 19.7997 37.7941 21.5581V53.0645C37.7941 53.9648 37.4401 54.8282 36.8101 55.4648C36.1801 56.1015 35.3256 56.4591 34.4346 56.4591H23.8837C22.1435 56.4591 20.4746 55.7606 19.2441 54.5172C18.0136 53.2738 17.3223 51.5874 17.3223 49.829V21.5581C17.3223 19.7997 18.0136 18.1133 19.2441 16.8699C20.4746 15.6265 22.1435 14.928 23.8837 14.928Z" fill="white" stroke="white" stroke-width="0.36" stroke-miterlimit="10"/>
<path d="M41.1009 54.6558H13.8577V56.7244H41.1009V54.6558Z" fill="white" stroke="white" stroke-width="0.34" stroke-miterlimit="10"/>
<path d="M21.3116 31.2647H33.3322C33.5385 31.2145 33.722 31.0957 33.8533 30.9273C33.9845 30.759 34.0559 30.5509 34.0559 30.3365C34.0559 30.1222 33.9845 29.9141 33.8533 29.7457C33.722 29.5773 33.5385 29.4584 33.3322 29.4082H21.3116C21.1054 29.4584 20.9218 29.5773 20.7905 29.7457C20.6593 29.9141 20.5879 30.1222 20.5879 30.3365C20.5879 30.5509 20.6593 30.759 20.7905 30.9273C20.9218 31.0957 21.1054 31.2145 21.3116 31.2647Z" fill="#1A44B2"/>
<path d="M60.6805 16.3602L27.7156 21.6643C28.1356 21.8808 28.498 22.1962 28.7721 22.5839C29.0462 22.9716 29.2239 23.4204 29.2903 23.8921C29.3777 24.3574 29.3517 24.837 29.2145 25.2899C29.0774 25.7427 28.8331 26.155 28.503 26.4911L61.4678 21.187C62.0441 21.0369 62.5384 20.6629 62.8432 20.1463C63.1479 19.6298 63.2385 19.0126 63.0951 18.4289C63.0416 17.833 62.7585 17.2822 62.3068 16.8952C61.8551 16.5082 61.271 16.316 60.6805 16.3602Z" fill="white" stroke="#1A44B2" stroke-width="0.6" stroke-miterlimit="10"/>
<path d="M42.6234 19.2773L40.1562 24.6345" stroke="#19603A" stroke-width="0.14" stroke-miterlimit="10"/>
<path d="M44.828 18.906L42.3608 24.2631" stroke="#19603A" stroke-width="0.14" stroke-miterlimit="10"/>
<path d="M42.5709 19.4365L44.7755 19.0652L42.3609 24.1571L40.2087 24.4754L42.5709 19.4365Z" fill="#1A44B2"/>
<path d="M56.3761 17.3149L58.5807 16.9436L56.2186 22.0355L54.0139 22.3538L56.3761 17.3149Z" fill="#1A44B2"/>
<path d="M27.1908 27.0743C28.7272 27.0743 29.9728 25.8156 29.9728 24.2631C29.9728 22.7105 28.7272 21.4519 27.1908 21.4519C25.6543 21.4519 24.4087 22.7105 24.4087 24.2631C24.4087 25.8156 25.6543 27.0743 27.1908 27.0743Z" fill="#1A44B2"/>
</svg>
