<svg width="124" height="83" viewBox="0 0 124 83" fill="none" xmlns="http://www.w3.org/2000/svg">
<path d="M44.5525 16.1961L44.8752 16.4985L68.9858 40.1849L66.3999 42.8151L63.0799 39.5541L63.0817 64.5555C63.0817 66.4996 61.5767 68.0932 59.6677 68.2334L59.3929 68.2444H22.504C20.5599 68.2444 18.9663 66.7394 18.8243 64.8304L18.8151 64.5555L18.8132 39.5559L15.4969 42.8151L12.911 40.1849L36.9958 16.5225C39.0486 14.4272 42.3594 14.311 44.5525 16.1961ZM39.7827 18.9701L39.6057 19.1306L22.5021 35.9316L22.504 64.5555L31.7243 64.5537L31.7262 46.1111C31.7262 44.1671 33.2313 42.5735 35.1403 42.4314L35.4151 42.4222H46.4817C48.4258 42.4222 50.0194 43.9273 50.1614 45.8363L50.1706 46.1111L50.1688 64.5537L59.3929 64.5555L59.391 35.9298L42.2395 19.0789C41.5681 18.4205 40.5205 18.3799 39.7827 18.9701ZM46.4817 46.1111H35.4151L35.4132 64.5537H46.4799L46.4817 46.1111Z" fill="#1A44B2"/>
<path d="M85.5525 16.1961L85.8752 16.4985L109.986 40.1849L107.4 42.8151L104.08 39.5541L104.082 64.5555C104.082 66.4996 102.577 68.0932 100.668 68.2334L100.393 68.2444H63.504C61.5599 68.2444 59.9663 66.7394 59.8243 64.8304L59.8151 64.5555L59.8132 39.5559L56.4969 42.8151L53.911 40.1849L77.9958 16.5225C80.0486 14.4272 83.3594 14.311 85.5525 16.1961ZM80.7827 18.9701L80.6057 19.1306L63.5021 35.9316L63.504 64.5555L72.7243 64.5537L72.7262 46.1111C72.7262 44.1671 74.2313 42.5735 76.1403 42.4314L76.4151 42.4222H87.4817C89.4258 42.4222 91.0194 43.9273 91.1614 45.8363L91.1706 46.1111L91.1688 64.5537L100.393 64.5555L100.391 35.9298L83.2395 19.0789C82.5681 18.4205 81.5205 18.3799 80.7827 18.9701ZM87.4817 46.1111H76.4151L76.4132 64.5537H87.4799L87.4817 46.1111Z" fill="#1A44B2"/>
</svg>
