<svg id="Layer_1" data-name="Layer 1" xmlns="http://www.w3.org/2000/svg" viewBox="0 0 384 384"><defs><style>.cls-1{fill:#606060;}.cls-2{fill:#1a44b2;}</style></defs><rect class="cls-1" x="-585.6" y="1290.93" width="1988.36" height="174.5" transform="translate(-969.6 1786.76) rotate(-90)"/><path class="cls-2" d="M1.5,384.75c-.08-6.6-.13-13.21-.27-19.81C1.18,362.56,2.43,362,4.5,362c5.49.05,11-.19,16.46.08,3.56.18,4.43-1.16,4.41-4.51-.1-27.56-.06-55.12-.06-82.68q0-72.21,0-144.43c0-5.72,0-5.73,5.79-5.73H128c5.07,0,5.08,0,5.08-5.2q0-16.65,0-33.3c0-6.42,0-6.41,6.23-6.41,3.87,0,7.75-.25,11.59.07s4.84-1.29,4.78-4.94c-.2-11.6-.08-23.2-.06-34.8,0-5.21,0-5.24,5.17-5.24,12.1,0,24.2-.11,36.3.06,3.33,0,4.31-1.11,4.24-4.33-.17-8.1-.07-16.21,0-24.32,0-5,.07-5.09,4.94-5.1,4.61,0,9.23.18,13.84-.07,3.52-.18,4.86.94,4.76,4.61-.23,8.23.06,16.47-.13,24.69-.08,3.34.81,4.59,4.38,4.53,12.21-.2,24.44,0,36.66-.14,3.53,0,4.81,1,4.75,4.63-.18,12.09,0,24.19-.12,36.29,0,3,.82,4.27,4,4.11,4.48-.22,9-.06,13.46,0,5.06,0,5.07,0,5.08,5.25v52.75c0,24.07.07,48.14-.08,72.21,0,3.66,1.12,4.63,4.68,4.6,19.33-.16,38.66-.08,58-.07,5.39,0,5.41,0,5.41,5.36V356.51c0,5.51,0,5.48,5.51,5.53,6.1,0,12.21.16,18.31.25,0,6.86-.07,13.73.05,20.59,0,1.61-.31,2.2-1.93,1.88a8.23,8.23,0,0,0-1.49,0ZM156.59,232.16v124.6c0,5.26,0,5.27,5.39,5.27H196.4c5.5,0,5.51,0,5.51-5.5q0-68.47,0-136.95c0-5,0-5,5-5,19.46,0,38.91-.05,58.37,0,2.94,0,4.36-.32,4.42-3.94.54-34.79,0-69.59.23-104.38,0-2.59-1-3.55-3.53-3.49-4.87.12-9.75-.2-14.59.1-3.86.24-5-1.22-4.9-4.92.17-11.72-.06-23.45.13-35.17.06-3.64-.82-5-4.76-5-19.58.19-39.17.16-58.75,0-3.39,0-4.55.9-4.5,4.41.19,12.22,0,24.45.11,36.67,0,2.87-.93,4-3.89,3.94-4.48-.17-9,0-13.47,0-5.17,0-5.18,0-5.19,5.1ZM48.81,254.49V357c0,5,0,5,4.88,5h74.45c4.94,0,5,0,5-4.95q0-102.15,0-204.3c0-5,0-5-4.87-5H53.76c-4.93,0-4.94,0-4.95,5Zm176.58,45.14c0,19.46.05,38.92,0,58.37,0,3.08,1,4.24,4.09,4.08,4.11-.21,8.23-.05,12.35-.05,5.17,0,5.18,0,5.18-5.13q0-43.61,0-87.19c0-1.25.05-2.5,0-3.74-.1-2.49.94-3.62,3.54-3.55,4.24.13,8.48,0,12.72,0,7.86.06,7.18-.83,7.19,7.29,0,29.31.06,58.63-.07,87.94,0,3.47,1.05,4.61,4.48,4.41a133.11,133.11,0,0,1,13.84,0c3.06.15,3.85-1.07,3.8-3.93-.15-8.1-.05-16.21-.05-24.32,0-22.33.06-44.65-.07-67,0-3.45,1.09-4.62,4.5-4.46a139.23,139.23,0,0,0,14.59,0c3.45-.2,4.09,1.13,4.07,4.31-.14,21.07-.07,42.15-.07,63.23,0,9.23.11,18.47-.06,27.69-.06,3.44,1.15,4.68,4.59,4.48a94.57,94.57,0,0,1,12.71,0c3.87.3,4.83-1.12,4.82-4.86q-.19-57.44,0-114.88c0-3.76-1-4.88-4.83-4.87q-51.26.21-102.52,0c-3.84,0-4.88,1.15-4.85,4.89C225.48,261.46,225.39,280.55,225.39,299.63Z"/><path class="cls-2" d="M212.89,102.82c-2.86,0-5.72,0-8.58,0-2.06,0-3-1-3-2.92,0-5.71,0-11.43,0-17.15,0-2.26,1.21-3,3.33-2.94,5.59.06,11.19.08,16.78,0,2.38,0,3.37.92,3.34,3.3q-.12,8.2,0,16.41c0,2.36-.92,3.4-3.32,3.32C218.61,102.75,215.75,102.83,212.89,102.82Z"/><path class="cls-2" d="M190.46,147.74c-11.62,0-11.62,0-11.62-11.46s0-11.53,11.55-11.53c3,0,6,0,9,0,2,0,3,.86,2.95,2.89,0,5.72,0,11.44,0,17.16,0,2.31-1.17,3-3.27,2.95C196.17,147.69,193.31,147.74,190.46,147.74Z"/><path class="cls-2" d="M235.79,124.76c2.73,0,5.47,0,8.2,0,2.14,0,3.25.74,3.23,3q-.08,8.58,0,17.16c0,2.08-1,2.85-3,2.84-5.84,0-11.68-.05-17.53,0-2.12,0-2.87-1.1-2.87-3,0-5.71,0-11.43,0-17.15,0-2,1-2.89,3-2.84C229.82,124.81,232.8,124.77,235.79,124.76Z"/><path class="cls-2" d="M190.49,192.66c-2.36,0-4.74-.17-7.08,0-3.35.3-4.76-.89-4.61-4.38.21-5,.11-9.94,0-14.92,0-2.61.87-3.85,3.69-3.77,5.34.14,10.69.13,16,0,2.67-.06,3.86.84,3.79,3.64-.12,5.21-.11,10.44,0,15.66.06,2.65-.84,3.91-3.65,3.76S193.23,192.66,190.49,192.66Z"/><path class="cls-2" d="M247.2,181.16c0,11.5,0,11.51-11.49,11.5-2.86,0-5.72-.07-8.57,0-2.11.06-3.35-.66-3.35-2.93,0-5.72,0-11.43,0-17.15,0-2,.88-3,3-2.93,5.84.06,11.69.05,17.53,0,2,0,2.95.89,2.93,2.91C247.17,175.44,247.2,178.3,247.2,181.16Z"/><path class="cls-2" d="M102.05,229.37c0,2.73-.1,5.47,0,8.2s-1.1,3.54-3.56,3.51c-5.34-.05-10.69-.06-16,0C80,241.11,79,240,79,237.47c.12-5.46.12-10.94,0-16.4-.06-2.62,1.06-3.52,3.56-3.47,5.34.09,10.69.1,16,0,2.6,0,3.57,1,3.46,3.56C102,223.89,102.05,226.63,102.05,229.37Z"/><path class="cls-2" d="M102.05,277.4c0,2.73-.09,5.47,0,8.2s-1.06,3.54-3.56,3.5q-8-.12-16,0c-2.58,0-3.51-1.08-3.46-3.6.1-5.47.11-10.94,0-16.41-.06-2.61,1.07-3.54,3.56-3.5,5.35.07,10.69.08,16,0,2.57,0,3.57,1.08,3.45,3.6C102,271.92,102.05,274.66,102.05,277.4Z"/><path class="cls-2" d="M102,325.22c0,2.86-.05,5.72,0,8.58,0,2.1-.66,3.28-3,3.26-5.72-.06-11.43-.05-17.15,0-2,0-2.91-.93-2.89-2.95,0-5.84,0-11.68,0-17.52,0-2.11,1-2.92,3-2.92q8.58,0,17.15,0c2,0,2.94.94,2.89,3C102,319.51,102,322.37,102,325.22Z"/><path class="cls-2" d="M90.63,169.68c2.74,0,5.48,0,8.21,0,2.13-.06,3.25.67,3.22,3-.07,5.73-.06,11.45,0,17.18,0,2.11-1,2.84-3,2.83q-8.58-.06-17.18,0c-2.1,0-2.85-1-2.83-3,0-5.73,0-11.46,0-17.18,0-2.11,1-2.87,3-2.83C84.9,169.72,87.76,169.68,90.63,169.68Z"/></svg>