<svg width="73" height="74" viewBox="0 0 73 74" fill="none" xmlns="http://www.w3.org/2000/svg">
<path d="M36.3768 73.5148C56.4671 73.5148 72.7536 57.058 72.7536 36.7574C72.7536 16.4569 56.4671 0 36.3768 0C16.2864 0 0 16.4569 0 36.7574C0 57.058 16.2864 73.5148 36.3768 73.5148Z" fill="#1A44B2"/>
<path d="M37.1647 50.1238H34.3301V61.5806H37.1647V50.1238Z" fill="white" stroke="white" stroke-width="0.36" stroke-miterlimit="10"/>
<path d="M47.7154 30.2865C47.7046 32.685 46.9883 35.0261 45.6574 37.0121C44.3265 38.9982 42.4411 40.5394 40.2411 41.44C38.0411 42.3406 35.6258 42.5599 33.3022 42.0698C30.9786 41.5798 28.8517 40.4026 27.1918 38.6879C25.532 36.9733 24.4142 34.7986 23.9806 32.4405C23.5471 30.0823 23.8173 27.6471 24.7569 25.4445C25.6965 23.2419 27.263 21.3713 29.2574 20.0706C31.2518 18.77 33.5839 18.098 35.9572 18.14C39.104 18.1958 42.1024 19.5017 44.3031 21.7751C46.5038 24.0485 47.7296 27.1064 47.7154 30.2865Z" fill="white" stroke="white" stroke-width="0.36" stroke-miterlimit="10"/>
<path d="M35.7469 53.2532L26.8232 44.2363L28.818 42.2207L35.7469 49.2221L42.6233 42.2207L44.6704 44.2363L35.7469 53.2532Z" fill="white" stroke="white" stroke-width="0.36" stroke-miterlimit="10"/>
<path d="M31.0756 38.3487C31.0756 39.8699 30.6292 41.3568 29.7928 42.6216C28.9565 43.8863 27.7678 44.8722 26.377 45.4543C24.9863 46.0364 23.4559 46.1887 21.9795 45.892C20.503 45.5952 19.1468 44.8626 18.0823 43.787C17.0178 42.7114 16.293 41.3411 15.9993 39.8492C15.7056 38.3573 15.8562 36.8108 16.4323 35.4055C17.0084 34.0001 17.984 32.799 19.2357 31.954C20.4874 31.1089 21.9589 30.6577 23.4643 30.6577C25.4829 30.6577 27.4189 31.4681 28.8463 32.9104C30.2736 34.3528 31.0756 36.309 31.0756 38.3487Z" fill="white" stroke="white" stroke-width="0.36" stroke-miterlimit="10"/>
<path d="M55.6944 38.3487C55.6944 39.8699 55.2479 41.3568 54.4116 42.6216C53.5753 43.8863 52.3866 44.8722 50.9958 45.4543C49.605 46.0364 48.0747 46.1887 46.5982 45.892C45.1218 45.5952 43.7655 44.8626 42.7011 43.787C41.6366 42.7114 40.9116 41.3411 40.6179 39.8492C40.3242 38.3573 40.475 36.8108 41.0511 35.4055C41.6272 34.0001 42.6028 32.799 43.8544 31.954C45.1061 31.1089 46.5777 30.6577 48.083 30.6577C50.1017 30.6577 52.0376 31.4681 53.465 32.9104C54.8924 34.3528 55.6944 36.309 55.6944 38.3487Z" fill="white" stroke="white" stroke-width="0.36" stroke-miterlimit="10"/>
</svg>
