<svg width="78" height="57" viewBox="0 0 78 57" fill="none" xmlns="http://www.w3.org/2000/svg">
<path d="M75.217 27.16C73.986 25.9275 72.4035 25.1065 70.687 24.81C71.1952 21.4666 70.536 18.0503 68.8203 15.136C67.1045 12.2218 64.437 9.98774 61.267 8.81C58.5908 7.81056 55.6793 7.62274 52.897 8.27002C51.327 3.46002 45.637 0 38.667 0C31.697 0 26.017 3.46002 24.437 8.27002C21.6504 7.62452 18.7353 7.81583 16.057 8.82001C12.8865 9.99637 10.219 12.2305 8.50468 15.1454C6.79036 18.0603 6.13419 21.4775 6.64696 24.82C4.93043 25.1165 3.34789 25.9374 2.11696 27.17C0.761307 28.5291 0 30.3704 0 32.29C0 34.2096 0.761307 36.0509 2.11696 37.41C2.56525 37.8611 3.08152 38.239 3.64696 38.53V45.26C3.64942 46.3257 4.06977 47.3479 4.81769 48.1071C5.56561 48.8662 6.58143 49.3017 7.64696 49.32L6.17696 53.32C6.06547 53.6066 6.01258 53.9126 6.02139 54.2199C6.03021 54.5273 6.10055 54.8297 6.22827 55.1094C6.356 55.3891 6.5385 55.6403 6.765 55.8483C6.9915 56.0562 7.2574 56.2166 7.54697 56.32C7.79949 56.4147 8.06727 56.4622 8.33696 56.46C8.80834 56.46 9.26834 56.3151 9.65468 56.045C10.041 55.775 10.3351 55.3927 10.497 54.95L12.497 49.37H64.767L66.767 54.95C66.9313 55.3911 67.2259 55.7718 67.6117 56.0415C67.9975 56.3112 68.4562 56.4572 68.927 56.46C69.1967 56.4631 69.4647 56.4156 69.717 56.32C70.0074 56.2178 70.2742 56.058 70.5014 55.8503C70.7287 55.6426 70.9117 55.3913 71.0396 55.1112C71.1675 54.8312 71.2376 54.5282 71.2458 54.2205C71.2539 53.9127 71.1999 53.6064 71.087 53.32L69.627 49.32C70.6925 49.3017 71.7083 48.8662 72.4562 48.1071C73.2042 47.3479 73.6245 46.3257 73.627 45.26V38.54C74.1943 38.2431 74.7135 37.8622 75.167 37.41C76.5323 36.0572 77.3046 34.2174 77.3139 32.2953C77.3233 30.3733 76.5691 28.5262 75.217 27.16ZM12.057 18.41C12.6065 17.2054 13.3898 16.1219 14.3614 15.2224C15.333 14.3228 16.4736 13.6252 17.717 13.17C18.9558 12.7067 20.2743 12.4938 21.596 12.5436C22.9177 12.5934 24.2165 12.9049 25.417 13.46C26.6216 14.0096 27.7051 14.7929 28.6046 15.7645C29.5041 16.7361 30.2017 17.8766 30.657 19.12C30.8685 19.691 31.2978 20.1549 31.8508 20.4099C32.4038 20.6648 33.0354 20.69 33.607 20.48C33.8948 20.3744 34.1588 20.2127 34.3834 20.0041C34.6081 19.7955 34.789 19.5442 34.9156 19.265C35.0422 18.9858 35.1119 18.6841 35.1207 18.3777C35.1296 18.0712 35.0773 17.766 34.967 17.48C33.8182 14.3556 31.6336 11.7192 28.777 10.01C29.547 7.01001 33.777 4.60999 38.717 4.60999C43.657 4.60999 47.897 7.00001 48.667 10.01C45.8104 11.7192 43.6257 14.3556 42.477 17.48C42.365 17.7653 42.3112 18.0701 42.3186 18.3765C42.3261 18.6828 42.3948 18.9847 42.5205 19.2642C42.6463 19.5436 42.8267 19.7952 43.051 20.004C43.2754 20.2128 43.5392 20.3746 43.827 20.48C44.113 20.5903 44.4182 20.6426 44.7246 20.6338C45.0311 20.625 45.3327 20.5552 45.6119 20.4286C45.8912 20.3021 46.1424 20.1212 46.351 19.8965C46.5596 19.6718 46.7214 19.4078 46.827 19.12C47.2822 17.8766 47.9798 16.7361 48.8793 15.7645C49.7788 14.7929 50.8623 14.0096 52.067 13.46C53.2675 12.9049 54.5662 12.5934 55.8879 12.5436C57.2096 12.4938 58.5281 12.7067 59.767 13.17C61.0085 13.6263 62.1471 14.3245 63.117 15.2239C64.0868 16.1234 64.8686 17.2063 65.417 18.41C66.4371 20.6014 66.6289 23.0881 65.957 25.41C64.967 25.8313 64.0674 26.439 63.307 27.2C61.5766 28.9311 60.5412 31.2367 60.397 33.68H17.057C16.91 31.2353 15.871 28.9296 14.137 27.2C13.3819 26.4371 12.4851 25.8291 11.497 25.41C10.8313 23.0857 11.0302 20.5989 12.057 18.41ZM5.42696 30.41C5.78663 30.0481 6.21433 29.7609 6.68542 29.5649C7.15652 29.3689 7.66173 29.268 8.17197 29.268C8.68221 29.268 9.18741 29.3689 9.65851 29.5649C10.1296 29.7609 10.5573 30.0481 10.917 30.41C11.425 30.9135 11.8274 31.5134 12.1005 32.1746C12.3735 32.8357 12.5117 33.5447 12.507 34.26V35.88C12.54 36.5125 12.8128 37.1086 13.2698 37.547C13.7268 37.9854 14.3337 38.2332 14.967 38.24H62.507C63.1405 38.231 63.7473 37.9828 64.2054 37.545C64.6635 37.1073 64.9392 36.5125 64.977 35.88V34.28C64.9723 33.5618 65.1105 32.8498 65.3835 32.1854C65.6564 31.5211 66.0587 30.9176 66.567 30.41C67.2964 29.6809 68.2856 29.2713 69.317 29.2713C70.3483 29.2713 71.3375 29.6809 72.067 30.41C72.5616 30.9067 72.8393 31.5791 72.8393 32.28C72.8393 32.981 72.5616 33.6534 72.067 34.15C71.9128 34.3045 71.7296 34.4271 71.528 34.5107C71.3264 34.5944 71.1102 34.6374 70.892 34.6374C70.6737 34.6374 70.4575 34.5944 70.2559 34.5107C70.0543 34.4271 69.8712 34.3045 69.717 34.15C69.5041 33.9357 69.2509 33.7655 68.9721 33.6494C68.6932 33.5333 68.3941 33.4735 68.092 33.4735C67.7899 33.4735 67.4908 33.5333 67.2119 33.6494C66.933 33.7655 66.6798 33.9357 66.467 34.15C66.2526 34.3629 66.0825 34.616 65.9664 34.8949C65.8503 35.1738 65.7905 35.4729 65.7905 35.775C65.7905 36.0771 65.8503 36.3762 65.9664 36.6551C66.0825 36.934 66.2526 37.1872 66.467 37.4C67.2193 38.1532 68.1524 38.7006 69.177 38.99V44.72H8.25696V38.99C9.28148 38.7006 10.2146 38.1532 10.967 37.4C11.1813 37.1872 11.3515 36.934 11.4676 36.6551C11.5837 36.3762 11.6434 36.0771 11.6434 35.775C11.6434 35.4729 11.5837 35.1738 11.4676 34.8949C11.3515 34.616 11.1813 34.3629 10.967 34.15C10.7541 33.9357 10.5009 33.7655 10.222 33.6494C9.94315 33.5333 9.64406 33.4735 9.34196 33.4735C9.03987 33.4735 8.74076 33.5333 8.46187 33.6494C8.18298 33.7655 7.92982 33.9357 7.71696 34.15C7.56363 34.3042 7.38132 34.4266 7.18053 34.5101C6.97974 34.5936 6.76443 34.6365 6.54697 34.6365C6.3295 34.6365 6.11418 34.5936 5.91339 34.5101C5.7126 34.4266 5.5303 34.3042 5.37697 34.15C4.88234 33.6534 4.60461 32.981 4.60461 32.28C4.60461 31.5791 4.88234 30.9067 5.37697 30.41H5.42696Z" fill="#1A44B2"/>
</svg>
