<svg width="81" height="50" viewBox="0 0 81 50" fill="none" xmlns="http://www.w3.org/2000/svg">
<path d="M71.2183 15.5163H70.5965V12.1959C70.5903 9.05804 69.341 6.05045 67.1222 3.83166C64.9034 1.61286 61.8959 0.363623 58.758 0.357422H22.1399C19 0.360521 15.9894 1.60845 13.7681 3.82757C11.5468 6.0467 10.2959 9.05601 10.2897 12.1959V15.5163H9.67959C7.11336 15.5194 4.6531 16.5402 2.8385 18.3548C1.0239 20.1694 0.00310494 22.6297 0 25.1959V33.1272C0.00462782 35.3477 0.769813 37.4997 2.16813 39.2247C3.56644 40.9496 5.51348 42.1434 7.68499 42.6074L6.45306 45.9864C6.32775 46.3245 6.27056 46.6841 6.28479 47.0443C6.29902 47.4046 6.38438 47.7586 6.53597 48.0857C6.68755 48.4129 6.90236 48.7069 7.16803 48.9506C7.43369 49.1944 7.74497 49.3833 8.08392 49.5063C8.38767 49.6212 8.70953 49.6808 9.03428 49.6823C9.59758 49.6809 10.1469 49.5069 10.6084 49.1839C11.0699 48.8609 11.4213 48.4042 11.6155 47.8754L13.5397 42.5956H67.3817L69.3058 47.8754C69.5 48.4042 69.8515 48.8609 70.3129 49.1839C70.7744 49.5069 71.3238 49.6809 71.8871 49.6823C72.2118 49.6808 72.5337 49.6212 72.8374 49.5063C73.1764 49.3833 73.4876 49.1944 73.7533 48.9506C74.019 48.7069 74.2338 48.4129 74.3854 48.0857C74.537 47.7586 74.6223 47.4046 74.6366 47.0443C74.6508 46.6841 74.5936 46.3245 74.4683 45.9864L73.295 42.6074C75.4665 42.1434 77.4136 40.9496 78.8119 39.2247C80.2102 37.4997 80.9754 35.3477 80.98 33.1272V25.1959C80.9785 23.9182 80.7244 22.6535 80.2323 21.4744C79.7401 20.2954 79.0197 19.2252 78.1125 18.3256C77.2053 17.426 76.1291 16.7147 74.9459 16.2326C73.7627 15.7504 72.4959 15.507 71.2183 15.5163ZM19.3592 33.1155V30.6634H61.5974V33.139C61.5953 34.5107 61.8874 35.8671 62.4539 37.1164H18.5613C19.1093 35.859 19.3813 34.4987 19.3592 33.1272V33.1155ZM15.8393 12.2076C15.8424 10.5251 16.5122 8.91238 17.7019 7.72267C18.8916 6.53296 20.5043 5.86323 22.1868 5.86012H58.805C60.4875 5.86323 62.1002 6.53296 63.2899 7.72267C64.4796 8.91238 65.1493 10.5251 65.1524 12.2076V17.4287C65.1524 17.5108 65.1524 17.593 65.1524 17.6751C64.0516 18.5822 63.1651 19.7217 62.5565 21.0118C61.948 22.302 61.6324 23.7107 61.6326 25.1372H19.3944C19.3936 23.7126 19.0776 22.3058 18.469 21.0177C17.8605 19.7296 16.9745 18.5921 15.8745 17.6868L15.8393 12.2076ZM5.54963 33.1155V25.1841C5.54808 24.6346 5.65498 24.0902 5.8642 23.5821C6.07341 23.074 6.38083 22.6121 6.76885 22.223C7.15686 21.8339 7.61784 21.5252 8.12537 21.3145C8.6329 21.1039 9.17701 20.9955 9.72651 20.9955C10.276 20.9955 10.8201 21.1039 11.3277 21.3145C11.8352 21.5252 12.2962 21.8339 12.6842 22.223C13.0722 22.6121 13.3796 23.074 13.5888 23.5821C13.798 24.0902 13.9049 24.6346 13.9034 25.1841V33.1155C13.9049 33.6651 13.798 34.2094 13.5888 34.7176C13.3796 35.2257 13.0722 35.6875 12.6842 36.0766C12.2962 36.4657 11.8352 36.7744 11.3277 36.9851C10.8201 37.1957 10.276 37.3041 9.72651 37.3041C9.17406 37.3103 8.62587 37.2069 8.11368 36.9998C7.60148 36.7926 7.13546 36.4859 6.74262 36.0975C6.34978 35.709 6.0379 35.2465 5.82506 34.7366C5.61222 34.2268 5.50265 33.6797 5.50268 33.1272L5.54963 33.1155ZM75.4421 33.1155C75.4437 33.6651 75.3368 34.2094 75.1275 34.7176C74.9183 35.2257 74.6109 35.6875 74.2229 36.0766C73.8349 36.4657 73.3739 36.7744 72.8664 36.9851C72.3588 37.1957 71.8147 37.3041 71.2652 37.3041C70.1543 37.3041 69.0889 36.8628 68.3034 36.0773C67.5179 35.2918 67.0766 34.2264 67.0766 33.1155V25.1841C67.0766 24.0732 67.5179 23.0078 68.3034 22.2223C69.0889 21.4368 70.1543 20.9955 71.2652 20.9955C71.8147 20.9955 72.3588 21.1039 72.8664 21.3145C73.3739 21.5252 73.8349 21.8339 74.2229 22.223C74.6109 22.6121 74.9183 23.074 75.1275 23.5821C75.3368 24.0902 75.4437 24.6346 75.4421 25.1841V33.1155Z" fill="#1A44B2"/>
</svg>
