<svg width="78" height="46" viewBox="0 0 78 46" fill="none" xmlns="http://www.w3.org/2000/svg">
<path d="M44.0575 40.1821H41.642V16.3882H55.8077C56.5082 16.3882 57.1801 16.11 57.6754 15.6146C58.1707 15.1193 58.449 14.4475 58.449 13.747C58.449 13.0465 58.1707 12.3746 57.6754 11.8793C57.1801 11.384 56.5082 11.1057 55.8077 11.1057H22.1937C21.4932 11.1057 20.8214 11.384 20.3261 11.8793C19.8308 12.3746 19.5525 13.0465 19.5525 13.747C19.5525 14.4475 19.8308 15.1193 20.3261 15.6146C20.8214 16.11 21.4932 16.3882 22.1937 16.3882H36.3595V40.1821H33.944C33.2424 40.1851 32.5706 40.4659 32.0756 40.9631C31.5806 41.4602 31.3027 42.1332 31.3027 42.8347C31.3027 43.5352 31.581 44.207 32.0763 44.7024C32.5717 45.1977 33.2435 45.476 33.944 45.476H44.1027C44.8032 45.476 45.475 45.1977 45.9703 44.7024C46.4657 44.207 46.7439 43.5352 46.7439 42.8347C46.744 42.4835 46.6742 42.1358 46.5388 41.8117C46.4034 41.4877 46.205 41.1937 45.9551 40.947C45.7052 40.7002 45.4087 40.5056 45.083 40.3743C44.7573 40.243 44.4087 40.1777 44.0575 40.1821Z" fill="#1A44B2"/>
<path d="M26.8215 27.8902C26.8215 27.1897 26.5432 26.5179 26.0478 26.0225C25.5525 25.5272 24.8807 25.2489 24.1802 25.2489H12.43C8.40036 25.2489 7.5538 19.3795 7.51994 19.1198L5.26245 2.70791C5.16439 2.01445 4.79604 1.38791 4.23778 0.964987C3.67953 0.542067 2.97668 0.357097 2.28257 0.450425C1.93855 0.49758 1.60721 0.61211 1.3075 0.787449C1.0078 0.962789 0.745614 1.19549 0.535937 1.47226C0.32626 1.74904 0.173207 2.06444 0.0855484 2.40043C-0.00210998 2.73641 -0.0226559 3.08638 0.0250775 3.43031L2.28257 19.8197C2.68981 23.003 4.14297 25.961 6.41377 28.2288L3.6935 42.3946C3.62801 42.7355 3.63039 43.086 3.70049 43.426C3.77059 43.7661 3.90704 44.0889 4.10203 44.3762C4.29702 44.6634 4.54673 44.9094 4.83688 45.1001C5.12702 45.2907 5.45192 45.4223 5.79296 45.4873C6.13391 45.5528 6.48441 45.5504 6.82444 45.4803C7.16447 45.4102 7.48735 45.2738 7.7746 45.0788C8.06185 44.8838 8.30784 44.6341 8.49849 44.3439C8.68915 44.0538 8.82074 43.7289 8.88572 43.3878L11.3577 30.5427H17.7464L20.2183 43.3878C20.3316 43.9936 20.6531 44.5407 21.1272 44.9344C21.6013 45.3282 22.1981 45.5437 22.8144 45.5437C22.9814 45.5411 23.1477 45.5222 23.3111 45.4873C23.6521 45.4223 23.977 45.2907 24.2671 45.1001C24.5573 44.9094 24.807 44.6634 25.002 44.3762C25.197 44.0889 25.3334 43.7661 25.4035 43.426C25.4736 43.086 25.476 42.7355 25.4105 42.3946L23.153 30.5427H24.2028C24.9004 30.5338 25.5664 30.2504 26.0566 29.754C26.5467 29.2575 26.8215 28.5879 26.8215 27.8902Z" fill="#1A44B2"/>
<path d="M75.73 0.450425C75.0359 0.357097 74.3331 0.542067 73.7748 0.964987C73.2166 1.38791 72.8482 2.01445 72.7502 2.70791L70.4927 19.1311C70.4927 19.3795 69.6123 25.2489 65.5826 25.2489H53.8324C53.4856 25.2489 53.1421 25.3172 52.8217 25.45C52.5012 25.5827 52.21 25.7773 51.9648 26.0225C51.7195 26.2678 51.5249 26.559 51.3922 26.8794C51.2595 27.1999 51.1912 27.5433 51.1912 27.8902C51.1912 28.5917 51.4691 29.2647 51.9641 29.7618C52.4591 30.259 53.1309 30.5398 53.8324 30.5427H54.8822L52.6247 42.3946C52.4949 43.0766 52.6389 43.7823 53.0254 44.359C53.412 44.9357 54.0101 45.3369 54.6903 45.476C55.0312 45.5415 55.3817 45.5391 55.7218 45.469C56.0618 45.3989 56.3846 45.2625 56.6719 45.0675C56.9591 44.8725 57.2051 44.6228 57.3958 44.3326C57.5864 44.0425 57.718 43.7176 57.783 43.3766L60.255 30.5314H66.6437L69.1156 43.3766C69.2309 43.9814 69.553 44.5272 70.0266 44.9206C70.5003 45.3139 71.096 45.5302 71.7117 45.5325C71.8787 45.5304 72.0451 45.5115 72.2084 45.476C72.5494 45.411 72.8743 45.2794 73.1644 45.0888C73.4546 44.8981 73.7043 44.6521 73.8993 44.3649C74.0943 44.0776 74.2307 43.7548 74.3008 43.4148C74.3709 43.0747 74.3733 42.7242 74.3078 42.3833L71.5876 28.2175C73.8574 25.9581 75.3109 23.0076 75.7188 19.831L77.9762 3.41903C78.0696 2.7279 77.8858 2.02789 77.465 1.47175C77.0442 0.915604 76.4205 0.548461 75.73 0.450425Z" fill="#1A44B2"/>
</svg>
