<svg width="71" height="72" viewBox="0 0 71 72" fill="none" xmlns="http://www.w3.org/2000/svg">
<path d="M35.4845 71.7115C55.082 71.7115 70.9689 55.6583 70.9689 35.8557C70.9689 16.0532 55.082 0 35.4845 0C15.8869 0 0 16.0532 0 35.8557C0 55.6583 15.8869 71.7115 35.4845 71.7115Z" fill="#1A44B2"/>
<path d="M43.5156 10.396H27.0856L11.863 23.1789V23.6033C12.1804 29.0386 13.2766 34.3985 15.1175 39.5156C18.4707 50.005 25.486 58.9035 34.8545 64.551L35.2743 64.8161L35.6943 64.551C45.0499 58.8887 52.0609 49.9957 55.4312 39.5156C57.2111 34.3812 58.3055 29.03 58.6857 23.6033V23.1789L43.5156 10.396Z" fill="white"/>
<path d="M57.5311 23.7096L43.0959 11.6162H27.3483L12.9131 23.7096C12.9131 23.7096 13.9629 51.1849 35.2221 63.2252C56.2188 51.1849 57.4787 23.7096 57.4787 23.7096H57.5311Z" fill="#1A44B2"/>
<path d="M55.4314 24.5051L42.4134 13.5786H28.2931L15.2227 24.5051C15.2227 24.5051 16.1675 49.2752 35.327 60.1486C54.4865 49.5404 55.4314 24.5051 55.4314 24.5051Z" fill="white" stroke="white" stroke-width="0.13" stroke-miterlimit="10"/>
<path d="M27.7284 34.3165L26.9382 34.9312C26.5247 35.2529 26.4475 35.8524 26.7658 36.2702L30.9925 41.8181C31.3108 42.2359 31.9041 42.3138 32.3176 41.9922L33.1078 41.3775C33.5213 41.0558 33.5985 40.4564 33.2802 40.0385L29.0535 34.4906C28.7352 34.0728 28.1419 33.9949 27.7284 34.3165Z" fill="#1A44B2"/>
<path d="M30.512 40.8785L31.1204 41.677C31.4387 42.0948 32.0321 42.1728 32.4456 41.8511L45.2982 31.8533C45.7117 31.5317 45.7888 30.9322 45.4705 30.5144L44.8621 29.7158C44.5438 29.298 43.9506 29.22 43.5371 29.5417L30.6844 39.5395C30.2709 39.8611 30.1937 40.4606 30.512 40.8785Z" fill="#1A44B2"/>
</svg>
