<svg width="132" height="134" viewBox="0 0 132 134" fill="none" xmlns="http://www.w3.org/2000/svg" xmlns:xlink="http://www.w3.org/1999/xlink">
<path d="M21.036,58.094L21.036,13.652C20.972,11.839 21.283,10.033 21.951,8.347C22.619,6.661 23.629,5.131 24.917,3.855C26.205,2.578 27.743,1.582 29.435,0.929C31.127,0.276 32.936,-0.02 34.748,0.06L118.227,0.06C120.044,-0.003 121.854,0.308 123.545,0.974C125.236,1.64 126.772,2.646 128.058,3.931C129.344,5.215 130.352,6.75 131.02,8.441C131.688,10.131 132.001,11.941 131.939,13.757C131.939,17.049 131.939,20.341 131.939,23.633C131.939,25.702 130.988,26.654 128.919,26.654C123.588,26.654 118.258,26.729 112.942,26.654C111.236,26.654 110.843,27.167 110.843,28.798C110.843,58.709 110.843,88.619 110.843,118.53C110.906,121.661 109.865,124.716 107.902,127.157C105.939,129.598 103.179,131.27 100.106,131.879C99.3,132.033 98.48,132.104 97.66,132.09L13.198,132.09C11.45,132.111 9.716,131.781 8.097,131.121C6.478,130.461 5.008,129.484 3.772,128.247C2.537,127.01 1.561,125.539 0.903,123.919C0.245,122.299 -0.083,120.565 -0.06,118.817C-0.06,115.419 -0.06,112.006 -0.06,108.608C-0.06,106.433 0.861,105.588 3.065,105.588C8.441,105.588 13.818,105.588 19.194,105.588C20.704,105.588 21.036,105.105 21.036,103.7C21.036,88.458 21.036,73.256 21.036,58.094ZM26.533,58.698C26.533,73.508 26.533,88.327 26.533,103.157C26.533,105.407 26.533,105.407 28.783,105.407L86.258,105.407C88.976,105.407 89.762,106.207 89.762,108.94C89.762,112.081 89.762,115.207 89.762,118.333C89.71,119.886 90.126,121.418 90.955,122.732C91.785,124.046 92.989,125.081 94.413,125.703C95.681,126.328 97.105,126.565 98.507,126.385C99.909,126.205 101.227,125.616 102.296,124.691C103.347,123.803 104.169,122.675 104.695,121.404C105.22,120.132 105.433,118.753 105.316,117.382C105.316,82.86 105.316,48.334 105.316,13.803C105.231,11.376 105.816,8.972 107.007,6.856C107.657,5.769 107.445,5.482 106.207,5.497C102.205,5.497 98.188,5.497 94.126,5.497L35.337,5.497C34.017,5.399 32.692,5.61 31.468,6.113C30.244,6.617 29.154,7.398 28.284,8.396C26.957,10.119 26.302,12.266 26.442,14.437C26.543,29.135 26.588,43.889 26.578,58.698L26.533,58.698ZM44.851,110.919C32.347,110.919 19.828,110.919 7.324,110.919C5.904,110.919 5.346,111.281 5.436,112.761C5.542,114.618 5.436,116.491 5.436,118.363C5.374,119.905 5.771,121.43 6.578,122.745C7.385,124.06 8.564,125.105 9.967,125.748C11.402,126.336 12.948,126.604 14.497,126.533L85.126,126.533C86.198,126.533 86.636,126.352 85.911,125.28C84.648,123.136 84.043,120.667 84.174,118.182C84.174,116.597 84.174,114.996 84.174,113.41C84.174,110.964 84.174,110.964 81.788,110.964L44.851,110.919ZM118.575,21.081C120.764,21.081 122.969,21.081 125.159,21.081C126.035,21.081 126.458,20.779 126.458,19.843C126.458,17.653 126.533,15.449 126.458,13.259C126.409,11.234 125.586,9.305 124.16,7.867C122.733,6.429 120.811,5.592 118.786,5.527C116.819,5.545 114.93,6.301 113.495,7.647C112.06,8.992 111.183,10.829 111.039,12.791C110.783,15.177 111.039,17.608 110.934,20.024C110.934,20.945 111.492,21.081 112.232,21.066L118.575,21.081Z" fill="#1A44B2"/>
<path d="M47.433,35.171C46.044,36.273 44.987,37.134 43.899,37.949C43.312,38.49 42.534,38.777 41.736,38.746C40.938,38.714 40.184,38.368 39.641,37.783C38.538,36.424 38.825,34.839 40.487,33.51C48.566,27.016 56.675,20.553 64.739,14.029C64.899,13.849 65.096,13.704 65.316,13.606C65.536,13.507 65.774,13.456 66.015,13.456C66.256,13.456 66.495,13.507 66.715,13.606C66.935,13.704 67.131,13.849 67.291,14.029C75.345,20.513 83.399,26.966 91.453,33.389C93.175,34.778 93.492,36.409 92.359,37.798C91.227,39.188 89.611,39.067 87.95,37.798L84.929,35.397C84.627,35.906 84.53,36.511 84.658,37.089C84.658,42.631 84.658,48.173 84.658,53.7C84.658,55.21 84.189,55.603 82.755,55.558C79.523,55.558 76.292,55.558 73.045,55.558C71.746,55.558 71.172,55.225 71.202,53.806C71.323,49.366 70.704,50.076 74.932,50.03C79.161,49.985 79.13,50.03 79.13,45.757C79.13,41.483 79.13,36.877 79.13,32.437C79.172,31.896 79.073,31.353 78.842,30.861C78.612,30.369 78.259,29.944 77.817,29.629C74.223,26.83 70.664,23.986 67.14,21.096C66.999,20.943 66.827,20.821 66.636,20.737C66.445,20.653 66.239,20.61 66.03,20.61C65.822,20.61 65.615,20.653 65.424,20.737C65.233,20.821 65.062,20.943 64.92,21.096C61.356,24.026 57.747,26.88 54.123,29.734C53.747,30.001 53.443,30.358 53.24,30.772C53.037,31.186 52.941,31.644 52.96,32.105C52.96,37.542 52.96,42.973 52.96,48.4C52.96,49.638 53.368,50.061 54.576,50.015C56.222,49.94 57.868,50.015 59.514,50.015C60.496,50.015 60.903,50.393 60.888,51.374C60.888,56.433 61.432,55.452 57.053,55.527C54.425,55.527 51.782,55.527 49.155,55.527C47.841,55.527 47.448,55.059 47.463,53.791C47.463,48.309 47.463,42.827 47.463,37.33L47.433,35.171Z" fill="#1A44B2"/>
<path d="M65.917,71.384L37.647,71.384C35.548,71.384 34.401,70.462 34.31,68.801C34.243,68.108 34.453,67.417 34.894,66.879C35.336,66.341 35.973,66.001 36.666,65.932C37.264,65.894 37.864,65.894 38.463,65.932L93.522,65.932C94.07,65.902 94.62,65.902 95.168,65.932C95.862,65.96 96.518,66.261 96.99,66.77C97.463,67.28 97.714,67.956 97.69,68.65C97.704,68.995 97.65,69.338 97.531,69.662C97.411,69.985 97.229,70.282 96.995,70.534C96.76,70.787 96.478,70.991 96.165,71.134C95.851,71.277 95.513,71.357 95.168,71.368C93.084,71.459 91,71.368 88.916,71.368L65.917,71.384Z" fill="#1A44B2"/>
<path d="M66.189,76.412L94.322,76.412C94.975,76.31 95.642,76.425 96.223,76.739C96.804,77.052 97.266,77.548 97.539,78.149C97.697,78.531 97.766,78.944 97.741,79.356C97.716,79.769 97.596,80.17 97.393,80.53C97.189,80.89 96.905,81.198 96.564,81.432C96.223,81.666 95.834,81.819 95.425,81.879C94.877,81.924 94.326,81.924 93.779,81.879L38.176,81.879C37.673,81.91 37.169,81.91 36.666,81.879C35.974,81.817 35.334,81.487 34.882,80.959C34.43,80.432 34.203,79.748 34.25,79.055C34.248,78.39 34.501,77.749 34.955,77.264C35.41,76.779 36.032,76.485 36.696,76.442C37.244,76.412 37.794,76.412 38.342,76.442L66.189,76.412Z" fill="#1A44B2"/>
<path d="M66.189,86.953L94.322,86.953C94.975,86.851 95.642,86.966 96.223,87.28C96.804,87.593 97.266,88.088 97.539,88.69C97.697,89.072 97.766,89.485 97.741,89.897C97.716,90.31 97.597,90.711 97.393,91.071C97.189,91.431 96.906,91.739 96.565,91.973C96.224,92.206 95.834,92.359 95.425,92.42C94.877,92.465 94.326,92.465 93.779,92.42L38.161,92.42C37.658,92.451 37.154,92.451 36.651,92.42C35.962,92.354 35.325,92.023 34.877,91.495C34.428,90.968 34.203,90.286 34.25,89.596C34.252,88.929 34.508,88.289 34.965,87.804C35.422,87.319 36.046,87.025 36.711,86.983C37.254,86.953 37.799,86.953 38.342,86.983L66.189,86.953Z" fill="#1A44B2"/>
</svg>
