<svg width="74" height="63" viewBox="0 0 74 63" fill="none" xmlns="http://www.w3.org/2000/svg">
<path d="M23.8559 32.2374C24.9661 31.2207 25.8531 29.98 26.4598 28.5949C27.0665 27.2098 27.3794 25.7114 27.3782 24.1964C27.3763 21.9196 26.668 19.7007 25.3531 17.8528C24.0383 16.005 22.1834 14.6214 20.0499 13.897C20.8409 13.3487 21.4889 12.6145 21.9383 11.7575C22.3877 10.9004 22.6251 9.94595 22.6303 8.97576C22.6303 8.1844 22.476 7.40081 22.1763 6.66985C21.8766 5.93889 21.4373 5.27491 20.8836 4.71594C20.3299 4.15697 19.6727 3.71397 18.9496 3.41232C18.2265 3.11067 17.4517 2.95631 16.6695 2.95802C15.888 2.9563 15.1137 3.11083 14.3913 3.41264C13.6689 3.71445 13.0126 4.15759 12.4599 4.71674C11.9073 5.27588 11.4692 5.93992 11.1709 6.67081C10.8726 7.40169 10.7199 8.18502 10.7216 8.97576C10.729 9.94553 10.9673 10.8992 11.4165 11.7559C11.8658 12.6126 12.5125 13.3471 13.3021 13.897C11.1685 14.6214 9.31358 16.005 7.99876 17.8528C6.68395 19.7007 5.97563 21.9196 5.97368 24.1964C5.97568 25.7109 6.28999 27.2082 6.89649 28.5928C7.50298 29.9774 8.3883 31.2187 9.49592 32.2374C7.22948 33.5306 5.34342 35.4099 4.0308 37.6829C2.71819 39.956 2.0262 42.5411 2.02564 45.1737C2.02216 49.1035 3.55651 52.8748 6.29331 55.6633C9.03011 58.4519 12.7468 60.0308 16.6308 60.0549C20.5238 60.0446 24.2537 58.4717 27.0016 55.6817C29.7496 52.8916 31.291 49.1125 31.2876 45.1737C31.2935 42.5445 30.6085 39.9609 29.3026 37.6877C27.9968 35.4146 26.117 33.5335 23.8559 32.2374Z" stroke="#1A44B2" stroke-width="4" stroke-linejoin="round"/>
<path d="M63.5428 32.2374C64.6546 31.2214 65.5437 29.981 66.1526 28.596C66.7615 27.211 67.0767 25.7123 67.078 24.1964C67.0732 21.9184 66.3622 19.6994 65.0452 17.8517C63.7282 16.0041 61.8715 14.6209 59.7367 13.897C60.5277 13.3487 61.1757 12.6145 61.6251 11.7575C62.0745 10.9004 62.3119 9.94595 62.3171 8.97576C62.3171 8.1844 62.1628 7.40081 61.8631 6.66985C61.5634 5.93889 61.1241 5.27491 60.5705 4.71594C60.0168 4.15697 59.3596 3.71397 58.6364 3.41232C57.9133 3.11067 57.1385 2.95631 56.3563 2.95802C54.7789 2.95802 53.266 3.59201 52.1505 4.72056C51.0351 5.84911 50.4085 7.37976 50.4085 8.97576C50.4158 9.94553 50.6542 10.8992 51.1034 11.7559C51.5526 12.6126 52.1994 13.3471 52.9889 13.897C50.8554 14.6214 49.0004 16.005 47.6856 17.8528C46.3708 19.7007 45.6625 21.9196 45.6605 24.1964C45.6618 25.7123 45.977 27.211 46.5859 28.596C47.1948 29.981 48.0838 31.2214 49.1957 32.2374C46.9275 33.5285 45.0399 35.4074 43.727 37.6809C42.4141 39.9544 41.7232 42.5406 41.7254 45.1737C41.7185 49.1113 43.2571 52.8905 46.003 55.6809C48.7489 58.4713 52.4774 60.0446 56.3692 60.0549C58.2991 60.0549 60.21 59.6703 61.993 58.9231C63.7759 58.1759 65.3959 57.0808 66.7605 55.7002C68.1251 54.3195 69.2076 52.6804 69.9461 50.8766C70.6846 49.0727 71.0647 47.1393 71.0647 45.1868C71.064 42.5462 70.3664 39.9538 69.0441 37.6774C67.7217 35.4009 65.8225 33.5228 63.5428 32.2374Z" stroke="#1A44B2" stroke-width="4" stroke-linejoin="round"/>
<path d="M16.6309 39.4824V60.042" stroke="#1A44B2" stroke-width="4" stroke-linecap="round" stroke-linejoin="round"/>
<path d="M57.2207 39.4824V60.042" stroke="#1A44B2" stroke-width="4" stroke-linecap="round" stroke-linejoin="round"/>
</svg>
