<svg width="172" height="172" viewBox="0 0 172 172" fill="none" xmlns="http://www.w3.org/2000/svg" xmlns:xlink="http://www.w3.org/1999/xlink">
<path d="M107.502,11.165C107.502,8.427 107.502,6.094 107.502,3.738C107.502,1.381 108.336,0.333 110.552,0.238C116.11,-0.057 121.68,-0.057 127.238,0.238C129.455,0.357 130.265,1.452 130.265,3.761C130.265,10.903 130.265,18.045 130.265,25.187C130.206,25.765 130.314,26.348 130.576,26.866C130.838,27.385 131.243,27.819 131.743,28.115C136.51,31.424 141.42,34.781 146.235,38.161C148.929,40.042 149.167,41.351 147.284,44.018C145.401,46.684 143.47,49.541 141.516,52.255C141.299,52.732 140.968,53.149 140.553,53.469C140.138,53.79 139.65,54.004 139.133,54.093C138.616,54.182 138.085,54.144 137.587,53.981C137.088,53.818 136.636,53.536 136.272,53.159C134.746,52.136 133.268,51.064 131.767,50.041C131.385,49.803 131.028,49.279 130.527,49.541C130.027,49.803 130.289,50.398 130.289,50.826L130.289,80.655C130.289,81.227 130.289,81.822 130.289,82.417C130.28,82.785 130.198,83.147 130.047,83.483C129.897,83.819 129.682,84.122 129.413,84.375C129.145,84.627 128.83,84.824 128.485,84.954C128.14,85.083 127.773,85.144 127.405,85.131C127.035,85.154 126.665,85.103 126.315,84.982C125.965,84.862 125.642,84.673 125.366,84.428C125.089,84.182 124.863,83.884 124.702,83.552C124.541,83.219 124.446,82.858 124.425,82.488C124.425,81.917 124.425,81.322 124.425,80.727C124.425,69.443 124.425,58.135 124.425,46.851C124.477,46.249 124.36,45.645 124.086,45.106C123.812,44.568 123.393,44.116 122.876,43.803C112.706,36.804 102.559,29.742 92.437,22.616C91.931,22.149 91.267,21.89 90.578,21.89C89.889,21.89 89.225,22.149 88.719,22.616C78.612,29.726 68.474,36.789 58.304,43.803C57.806,44.094 57.4,44.518 57.13,45.027C56.861,45.536 56.739,46.11 56.778,46.684C56.778,57.92 56.778,69.157 56.778,80.394C56.778,80.965 56.778,81.56 56.778,82.155C56.791,82.537 56.726,82.918 56.588,83.274C56.45,83.631 56.241,83.955 55.973,84.229C55.706,84.502 55.386,84.719 55.033,84.866C54.68,85.013 54.3,85.087 53.918,85.083C53.517,85.118 53.114,85.067 52.736,84.932C52.358,84.797 52.013,84.582 51.725,84.302C51.438,84.021 51.214,83.682 51.07,83.308C50.926,82.933 50.865,82.532 50.891,82.131C50.891,77.37 50.891,72.609 50.891,68.014C50.891,62.325 50.891,56.611 50.891,50.898C50.891,50.422 51.177,49.731 50.581,49.469C49.985,49.207 49.746,49.779 49.365,50.041C47.863,51.064 46.385,52.136 44.86,53.135C44.492,53.511 44.037,53.79 43.536,53.95C43.035,54.109 42.502,54.143 41.985,54.049C41.467,53.955 40.981,53.736 40.568,53.411C40.155,53.085 39.828,52.664 39.616,52.183C37.566,49.311 35.556,46.414 33.585,43.494C33.23,43.148 32.964,42.721 32.81,42.25C32.655,41.779 32.618,41.277 32.7,40.788C32.782,40.299 32.981,39.838 33.28,39.442C33.58,39.047 33.971,38.73 34.42,38.518C38.4,35.686 42.429,32.924 46.338,30.115L87.503,1.547C90.22,-0.333 90.792,-0.333 93.51,1.547L105.428,9.903C106.167,10.332 106.548,10.618 107.502,11.165ZM141.111,42.565C141.111,41.732 140.491,41.589 140.109,41.304C124.219,30.194 108.288,19.085 92.318,7.975C91.875,7.553 91.286,7.318 90.673,7.318C90.061,7.318 89.472,7.553 89.028,7.975C73.583,18.751 58.129,29.504 42.667,40.232C39.974,42.113 39.973,42.137 41.833,44.827C43.358,47.017 43.334,47.017 45.575,45.446L88.17,15.831C88.487,15.491 88.871,15.219 89.297,15.034C89.724,14.848 90.184,14.752 90.649,14.752C91.115,14.752 91.575,14.848 92.001,15.034C92.428,15.219 92.811,15.491 93.128,15.831L107.43,25.687L136.701,46.041C137.154,46.351 137.726,47.065 138.226,46.517C139.251,45.256 140.181,43.827 141.111,42.565ZM124.425,14.546C124.425,12.308 124.425,10.07 124.425,7.832C124.425,6.666 124.115,6.118 122.828,6.142C120.182,6.142 117.537,6.142 114.891,6.142C113.77,6.142 113.294,6.523 113.318,7.666C113.318,9.832 113.318,12.022 113.318,14.188C113.29,14.537 113.359,14.887 113.519,15.198C113.679,15.509 113.923,15.77 114.223,15.95C117.227,18.021 120.23,20.092 123.21,22.211C124.139,22.878 124.401,22.592 124.377,21.568C124.425,19.235 124.449,16.879 124.449,14.546L124.425,14.546Z" fill="#1A44B2"/>
<path d="M96.013,141.718L71.652,141.718C69.278,141.578 66.924,142.222 64.954,143.551C64.072,144.218 63.977,144.718 64.954,145.48C65.8,146.262 66.597,147.097 67.337,147.979C67.622,148.244 67.849,148.565 68.004,148.921C68.159,149.278 68.239,149.662 68.239,150.05C68.239,150.439 68.159,150.823 68.004,151.18C67.849,151.536 67.622,151.856 67.337,152.122C61.712,157.803 56.047,163.453 50.342,169.072C50.049,169.392 49.688,169.642 49.285,169.803C48.882,169.964 48.448,170.032 48.015,170.002C47.582,169.973 47.161,169.846 46.784,169.631C46.407,169.416 46.083,169.119 45.837,168.762C42.476,165.453 39.163,162.12 35.826,158.787L1.812,124.768C-0.572,122.388 -0.572,121.126 1.812,118.721L16.924,103.605C19.427,101.224 20.571,101.224 23.121,103.605C34.785,115.238 46.433,126.887 58.065,138.552C59.185,139.695 59.924,139.861 61.259,138.838C64.016,136.681 67.436,135.545 70.937,135.624C86.605,135.624 102.274,135.624 117.942,135.624C122.871,135.835 127.724,134.357 131.695,131.434C134.034,129.547 136.089,127.334 137.797,124.864L161.634,90.654C163.261,88.637 164.107,86.101 164.017,83.512C163.908,82.361 163.521,81.253 162.889,80.285C162.257,79.316 161.399,78.515 160.388,77.951C159.378,77.386 158.245,77.076 157.088,77.045C155.93,77.014 154.783,77.265 153.744,77.775C152.574,78.373 151.524,79.18 150.645,80.155L135.295,95.51C134.951,95.989 134.483,96.366 133.941,96.601C133.4,96.836 132.805,96.92 132.22,96.844C131.661,96.758 131.138,96.515 130.712,96.143C130.286,95.771 129.975,95.286 129.815,94.744C129.655,94.202 129.653,93.626 129.809,93.083C129.964,92.54 130.271,92.053 130.694,91.678C133.435,88.845 136.248,86.083 139.037,83.298C141.826,80.513 144.781,77.37 147.832,74.632C149.546,72.987 151.688,71.855 154.015,71.367C156.341,70.878 158.758,71.053 160.99,71.871C163.253,72.51 165.288,73.778 166.858,75.527C168.427,77.276 169.467,79.434 169.857,81.75C170.199,83.88 170.098,86.057 169.561,88.145C169.023,90.234 168.061,92.19 166.735,93.892C160.124,103.366 153.569,112.865 147.07,122.388C144.972,125.387 142.994,128.482 140.682,131.291C138.104,134.639 134.774,137.334 130.96,139.158C127.146,140.982 122.956,141.884 118.728,141.79C111.101,141.671 103.569,141.718 96.013,141.718ZM60.687,149.86C60.377,149.527 59.996,149.098 59.591,148.693L36.255,125.363L21.143,110.27C20.452,109.58 19.951,109.08 19.021,110.032C15.446,113.698 11.87,117.317 8.152,120.888C7.437,121.626 7.485,122.102 8.152,122.769C9.368,123.887 10.536,125.149 11.68,126.244L46.958,161.43C47.673,162.12 48.197,162.953 49.341,161.787C52.845,158.145 56.492,154.645 60.044,151.026C60.226,150.888 60.378,150.712 60.489,150.511C60.6,150.31 60.667,150.089 60.687,149.86Z" fill="#1A44B2"/>
<path d="M82.855,90.654L113.055,90.654C116.54,90.623 119.916,91.864 122.55,94.143C125.183,96.423 126.893,99.584 127.357,103.033C127.824,106.637 126.898,110.282 124.768,113.228C122.638,116.174 119.464,118.198 115.892,118.888C115.258,119.03 114.611,119.102 113.961,119.102L82.474,119.102C80.257,119.102 79.16,118.055 79.208,116.079C79.256,114.103 80.328,113.246 82.474,113.246L107.382,113.246C109.265,113.246 111.148,113.246 113.032,113.246C114.141,113.268 115.245,113.07 116.277,112.663C117.31,112.257 118.251,111.649 119.047,110.877C119.843,110.104 120.478,109.181 120.914,108.161C121.35,107.142 121.58,106.046 121.589,104.938C121.577,103.815 121.34,102.705 120.893,101.675C120.445,100.644 119.796,99.714 118.983,98.937C118.17,98.161 117.21,97.555 116.16,97.154C115.109,96.754 113.989,96.567 112.865,96.606C111.053,96.606 109.218,96.606 107.406,96.606C90.387,96.606 73.368,96.725 56.349,96.606C52.669,96.369 48.98,96.929 45.537,98.248C42.094,99.567 38.976,101.613 36.398,104.247C36.045,104.724 35.58,105.106 35.043,105.359C34.507,105.612 33.916,105.729 33.323,105.699C32.764,105.624 32.235,105.402 31.791,105.054C31.347,104.707 31.004,104.248 30.796,103.724C30.56,103.209 30.497,102.631 30.618,102.077C30.738,101.523 31.035,101.023 31.464,100.653C34.166,97.619 37.466,95.175 41.157,93.475C44.849,91.775 48.852,90.855 52.917,90.773C62.833,90.606 72.844,90.654 82.855,90.654Z" fill="#1A44B2"/>
<path d="M73.559,68.371L73.559,54.802C73.559,52.088 74.512,51.112 77.134,51.112L104.164,51.112C106.739,51.112 107.74,52.088 107.764,54.588C107.764,63.697 107.764,72.807 107.764,81.917C107.764,84.298 106,85.798 103.878,85.107C103.203,84.879 102.63,84.419 102.264,83.808C101.897,83.198 101.759,82.477 101.876,81.774C101.876,74.299 101.876,66.848 101.876,59.373C101.876,56.992 101.876,56.992 99.612,56.992C93.605,56.992 87.694,56.992 81.592,56.992C79.995,56.992 79.446,57.397 79.47,59.063C79.47,66.776 79.47,74.466 79.47,82.155C79.47,84.536 77.992,85.869 75.99,85.512C75.252,85.4 74.589,85.003 74.143,84.405C73.697,83.808 73.504,83.06 73.606,82.322C73.559,77.656 73.559,73.014 73.559,68.371Z" fill="#1A44B2"/>
</svg>
